<?xml version="1.0" encoding="UTF-8" standalone="no"?>
<svg
   width="1813.9154pt"
   height="1813.931pt"
   viewBox="0 0 1813.9154 1813.931"
   version="1.1"
   id="svg91"
   xmlns="http://www.w3.org/2000/svg"
   xmlns:svg="http://www.w3.org/2000/svg">
  <defs
     id="defs91" /><circle cx="907.60222" cy="907.60222" r="900" fill="#DDE0DA"/>
  <path
     fill-rule="evenodd"
     fill="#BBC6AA"
     fill-opacity="1"
     d="m 1458.4694,511.80534 c -1.0703,2.58203 -3.3594,4.46875 -6.0976,5.01563 -52.4414,10.61328 -122.5078,23.72265 -199.418,30.89844 -0.2578,0.0117 -0.5234,0.0195 -0.7813,0.0195 -3.5234,0 -6.707,-2.21875 -7.9062,-5.59766 -46.0078,-130.78516 -96.1484,-215.07031 -162.5977,-273.29687 -1.3476,-1.1836 -2.2929,-2.77735 -2.6679,-4.53125 -0.9258,-4.29297 0.6328,-7.2461 1.6484,-8.625 2.7578,-3.75391 6.9766,-4.15625 8.5703,-4.30079 0.918,-0.0859 1.8477,-0.0195 2.7344,0.19922 89.9531,21.59766 165.2578,65.83594 212.5898,99.15625 63.9336,45.00782 115.4571,96.55469 153.1563,153.21094 1.543,2.33203 1.8242,5.27734 0.7695,7.85156 m 14.1485,30.08985 c 19.9765,0 34.1718,29.17578 48.1445,61.64843 1.7969,4.20313 3.3594,7.83594 4.6406,10.51563 44.3985,93.67187 66.293,184.30078 65.125,269.35547 -0.062,4.58203 -3.8125,8.26953 -8.3945,8.26953 h -274.0352 c -4.4179,0 -8.0937,-3.45313 -8.3633,-7.86328 -7.2421,-117.32422 -20.8789,-214.69531 -41.7148,-297.6836 -0.5977,-2.36718 -0.1133,-4.89062 1.293,-6.88281 1.4179,-1.99609 3.6211,-3.28125 6.0547,-3.5039 74.3671,-6.95313 147.6484,-21.51563 203.1562,-33.41407 1.3438,-0.28906 2.707,-0.4414 4.0938,-0.4414 m 12.8281,723.83204 c -1.586,2.1797 -4.1211,3.4297 -6.7735,3.4297 -0.5937,0 -1.1796,-0.055 -1.7773,-0.1641 -37.875,-8.1875 -78.5937,-14.5 -117.9492,-20.5703 -31.2305,-4.8398 -63.5235,-9.8203 -94.375,-15.75 -2.25,-0.4375 -4.2383,-1.7695 -5.4649,-3.7031 -1.2461,-1.9297 -1.6406,-4.2969 -1.0898,-6.5273 24.832,-101.2461 37.1992,-192.0938 38.8945,-286.01183 -0.1289,-8.0117 4.0196,-13.9726 11.3867,-16.3671 0.836,-0.2852 1.7188,-0.4102 2.5977,-0.4102 h 271.2383 c 2.2422,0 4.4062,0.9023 5.9765,2.5039 1.586,1.6055 2.4571,3.7813 2.4024,6.0273 -2.4375,127.76573 -39.7383,247.64853 -105.0664,337.54303 m -27.8828,41.8477 c -87,122.7656 -208.9258,207.5781 -362.4414,252.0625 -0.7578,0.2187 -1.5352,0.3554 -2.3321,0.3554 -1.0273,0 -2.0625,-0.1914 -3.039,-0.6015 -7.7617,-3.0195 -9.6328,-8.8399 -8.7969,-13.3047 1.1211,-5.9023 7.4766,-10.4727 12.4297,-12.6523 48.4297,-54.1719 112.7383,-141.6993 147.5,-253.9922 -0.098,-4.5977 1.9961,-7.5352 3.043,-8.9532 0.3281,-1.8476 1.2812,-3.5625 2.7226,-4.8125 1.7266,-1.5234 3.9727,-2.2851 6.2617,-2.0703 73.2305,6.4492 141.3438,19.3203 199.4375,30.8828 2.7891,0.5704 5.0977,2.5039 6.1524,5.1407 1.0547,2.6406 0.7031,5.6328 -0.9375,7.9453 m -517.28521,274.6719 c -0.4258,0.058 -0.8476,0.1132 -1.2695,0.1132 -1.9063,0 -3.7578,-0.6562 -5.2539,-1.8515 -1.8281,-1.4688 -2.9571,-3.6485 -3.1211,-5.9883 -4.0547,-61.543 -3.4414,-128.6406 -2.8516,-193.5352 0.375,-39.7226 0.7422,-80.7812 0.035,-120.0429 -0.2032,-8.0547 3.9375,-14.0938 11.3789,-16.5157 0.918,-0.3007 1.8984,-0.4375 2.8515,-0.4101 l 14.8477,0.4375 c 82.53131,2.4492 167.87111,4.9765 245.86721,13.5742 2.3789,0.2734 4.5156,1.5273 5.9101,3.457 1.3829,1.961 1.8711,4.3789 1.3555,6.7227 -14.0547,63.0976 -45.5898,128.125 -93.7031,193.2891 -36.3086,49.1679 -89.1289,107.3125 -176.04691,120.75 M 1268.9577,931.2077 c -5.2773,119.2734 -19.1133,215.0742 -42.2969,292.8359 -1.0625,3.5938 -4.3633,5.9883 -8.0312,5.9883 -0.3008,0 -0.6172,-0.027 -0.9258,-0.055 -58.2852,-6.4219 -121.4922,-9.1679 -182.6289,-11.8359 -32.7461,-1.4141 -66.61331,-2.8828 -99.38671,-4.8985 -4.418,-0.2695 -7.8711,-3.9453 -7.8711,-8.3789 V 936.4144 c -0.2032,-7.8906 3.9375,-13.9297 11.3789,-16.3515 0.8867,-0.2969 1.8164,-0.4102 2.7539,-0.4102 15.2305,0.2617 31.6172,0.3828 50.082,0.3828 23.86721,0 48.37501,-0.2187 72.08601,-0.4375 23.7421,-0.1875 48.289,-0.418 72.2461,-0.418 51.1796,0 89.6562,1.0196 124.7539,3.2774 4.5468,0.3008 8.0312,4.164 7.8398,8.75 M 930.63349,603.2155 c 0.2304,-4.41797 3.8633,-7.88672 8.2851,-7.92969 95.67971,-0.85156 189.19541,-4.91015 256.56641,-11.15625 0.3711,-0.0273 0.9571,-0.30469 1.8868,-0.7539 1.8593,-0.89063 4.6679,-2.2461 8.4297,-2.2461 1.0976,0 2.2109,0.11719 3.3125,0.34375 17.8984,3.65235 21.0039,14.25 24.6054,26.52735 0.4063,1.3789 0.836,2.85156 1.3047,4.40234 19.5547,63.79687 26.1563,157.625 31.4336,233.02734 0.8438,12 1.6523,23.53516 2.4688,34.44532 0.1679,2.23046 -0.5586,4.43359 -2.0352,6.12109 -1.4688,1.6875 -3.5508,2.72266 -5.7891,2.87109 -35.4179,2.27344 -74.2265,3.27735 -125.8476,3.27735 -24.1641,0 -48.9141,-0.23047 -72.8633,-0.4336 -23.9023,-0.21875 -48.6367,-0.43359 -72.72271,-0.43359 -18.6171,0 -35.1445,0.13281 -50.5078,0.40625 h -0.1523 c -4.457,0 -8.1446,-3.48438 -8.375,-7.94531 -4.6524,-86.5 -4.6524,-194 0,-280.52344 m -33.58205,-43.89844 c -0.21094,4.4961 -3.91406,8.00391 -8.375,8.00391 h -0.23047 c -83.25781,-2.3125 -177.59766,-4.91797 -263.50391,-14.02344 -2.35937,-0.24609 -4.50781,-1.48828 -5.90234,-3.41406 -1.40234,-1.92578 -1.91406,-4.34766 -1.42187,-6.67578 12.6289,-59.46485 44.9414,-126.17188 90.96484,-187.82813 40.55469,-54.30859 87.30078,-108.79297 172.82422,-126.22656 0.54297,-0.10938 1.11328,-0.17969 1.67187,-0.17969 h 5.59766 c 4.46875,0 8.16406,3.52735 8.375,8.00781 4.66016,100.91797 4.66016,221.41797 0,322.33594 m -0.008,324.42188 c -0.23047,4.46093 -3.91797,7.94531 -8.36719,7.94531 H 888.52 c -15.36328,-0.27344 -31.89453,-0.40625 -50.51172,-0.40625 -24.08594,0 -48.80078,0.21484 -72.72266,0.43359 -23.9414,0.20313 -48.69531,0.4336 -72.86328,0.4336 -51.62109,0 -90.4375,-1.00391 -125.84765,-3.27735 -4.60547,-0.29687 -8.10157,-4.24609 -7.83594,-8.82812 5.92187,-107.52344 13.85547,-210.84766 45.28125,-293.33203 1.32422,-3.51563 4.82422,-5.69141 8.58203,-5.37891 83.68359,7.5625 175.34375,14.49609 276.02734,13.95703 h 0.0469 c 4.44922,0 8.13672,3.48438 8.36719,7.92969 4.65234,86.52344 4.65234,194.02344 0,280.52344 m 0,324.36326 c -0.23047,4.461 -3.99219,7.8906 -8.41407,7.9453 -100.04687,-0.4648 -193.1875,6.4219 -278.84375,13.9571 -0.25,0 -0.48828,0.027 -0.74609,0.027 -3.66016,0 -6.94922,-2.3945 -8.02734,-5.9883 -23.01953,-76.5078 -36.45313,-167.7656 -42.28907,-287.2187 -0.21093,-8.3008 3.9375,-14.3399 11.38282,-16.7617 0.83593,-0.2852 1.71093,-0.4102 2.59765,-0.4102 h 315.97266 c 4.46094,0 8.13672,3.4727 8.36719,7.9336 4.65234,86.5156 4.65234,193.9922 0,280.5156 m 0,366.3906 c -0.14844,2.3399 -1.27735,4.5469 -3.11328,5.9883 -1.4961,1.2227 -3.35547,1.8789 -5.25391,1.8789 -0.41797,0 -0.85547,-0.055 -1.27734,-0.1132 -85.36719,-13.0313 -138.90235,-71.3399 -176,-120.6954 -32.63672,-43.4257 -75.40235,-112.1836 -93.75,-193.3203 -0.53516,-2.3672 -0.0312,-4.8398 1.39062,-6.7734 1.42969,-1.957 3.625,-3.2109 6.03516,-3.4297 66.27343,-6.0117 143.0664,-12.4062 215.69531,-12.4062 17.94922,0 35.14453,0.4101 51.11328,1.1992 4.51953,0.2148 8.05859,3.9961 7.97656,8.5156 -0.69922,39.9687 -0.33984,81.7617 0.0352,122.168 0.58984,66.0351 1.20312,134.3281 -2.85156,196.9882 m -152.16394,-18.609 c -1.54687,2.5859 -4.29296,4.1093 -7.19531,4.1093 -0.75,0 -1.5,-0.1093 -2.23828,-0.3281 -153.50391,-42.3906 -276.42187,-127.1719 -365.3125,-252.0625 -1.66016,-2.3398 -2.00781,-5.332 -0.95703,-7.9726 1.04687,-2.6368 3.36328,-4.5703 6.16797,-5.1407 61.0039,-12.082 126.66406,-24.4336 199.41797,-30.8828 3.90625,-0.3515 7.53906,2.0703 8.73437,5.8242 33.10938,104.1563 91.51172,204.8829 160.21875,276.3321 2.625,2.7187 3.09375,6.8828 1.16406,10.1211 M 355.34441,1269.5397 c -2,0 -3.86328,-0.2187 -5.54297,-0.625 -17.78125,-4.3554 -29.58203,-29.332 -42.07031,-59.0976 -2.09375,-4.9805 -3.89844,-9.2539 -5.44922,-12.543 -42.99219,-90.6875 -64.28906,-174.7617 -65.10547,-256.9141 -0.36328,-0.5429 -0.63672,-1.0742 -0.85547,-1.5781 -1.81641,-4.1484 -0.0352,-7.7266 0.72266,-9.2773 0.0586,-0.098 0.12109,-0.2188 0.1875,-0.3243 -0.3086,-2.2734 0.32812,-4.5742 1.76172,-6.3711 1.58593,-2.0117 4,-3.1562 6.55078,-3.1562 h 274.03515 c 4.42578,0 8.09375,3.4297 8.36719,7.8516 7.47266,119.1406 21.11328,216.4922 41.70313,297.6562 0.58984,2.3125 0.16406,4.7617 -1.17188,6.75 -1.32422,1.9844 -3.43359,3.2891 -5.78906,3.6172 -19.16797,2.7227 -38.38281,5.0352 -56.98047,7.293 -33.86719,4.1093 -68.88672,8.3515 -104.84375,15.0195 -4.64453,0.8672 -10.69141,2.8828 -17.07813,4.9766 -10,3.3203 -20.34375,6.7226 -28.4414,6.7226 m -13.125,-723.91795 c 1.9375,-2.68359 5.28906,-3.97656 8.53515,-3.28516 38.03516,8.11719 78.77344,14.46485 118.17579,20.58594 31.14453,4.85156 63.34765,9.84766 94.16015,15.72656 2.29297,0.44141 4.30078,1.81641 5.53516,3.79688 1.23437,1.98437 1.59375,4.39062 0.98828,6.63672 -25.63672,94.66797 -35.45313,202.13281 -41.66797,294.76562 -0.30859,4.40625 -3.96094,7.83594 -8.36719,7.83594 H 245.54363 c -2.25,0 -4.39844,-0.89844 -5.97266,-2.51563 -1.57812,-1.60546 -2.44922,-3.76953 -2.41406,-6.01562 2.24609,-127.33594 39.54687,-247.19531 105.0625,-337.53125 m 27.76953,-41.68359 c 38.82031,-58.14454 91.8125,-111.14063 153.23437,-153.25 71.02735,-48.70313 139.58594,-81.11719 209.56641,-99.07422 2.13672,-0.53907 4.39453,-0.23438 6.30859,0.87109 5.38672,3.13281 6.53516,7.58203 6.75391,9.95703 0.65234,7.70703 -6.08594,13.375 -9.71484,16.41406 -0.30469,0.26563 -0.57813,0.48438 -0.78907,0.66797 l -4.17578,4.57032 c -27.6289,30.22265 -58.95312,64.47656 -81.3125,102.89453 -22.53125,38.68359 -39.05859,82.6289 -55.05078,125.11328 -3.80859,10.1289 -7.61328,20.24219 -11.48047,30.28515 -1.26562,3.25 -4.39453,5.35157 -7.82422,5.35157 -0.26562,0 -0.54296,-0.008 -0.82421,-0.0274 -73.35547,-7.05468 -141.92579,-19.5625 -199.33594,-30.88281 -2.75391,-0.53516 -5.05469,-2.42187 -6.1211,-5.00391 -1.07421,-2.58593 -0.78515,-5.54296 0.76563,-7.88671 M 927.78189,365.9655 c 0.375,-39.73047 0.7422,-80.79688 0.035,-120.05859 -0.2032,-8.04297 3.9375,-14.08204 11.3789,-16.52344 1.3398,-0.4336 2.7851,-0.52344 4.1758,-0.25 97.31251,18.60937 151.53511,85.37109 195.64061,154.74219 40.0859,63.01562 62.668,113.71875 71.082,159.55859 0.4219,2.28516 -0.1211,4.66016 -1.5195,6.53125 -1.3906,1.85937 -3.4883,3.07422 -5.8125,3.32422 -75.7891,8.35156 -158.6406,10.84765 -238.76951,13.27734 l -24.7344,0.75391 h -0.2656 c -4.3868,0 -8.0625,-3.42188 -8.3594,-7.83985 -4.0547,-61.52734 -3.4414,-128.63671 -2.8516,-193.51562 m 44.3047,-167.73438 H 855.57488 C 681.34831,217.54753 528.55144,289.19987 413.69597,405.44597 294.78581,525.78972 225.04363,674.47722 206.403,847.38737 V 963.8952 c 20.09375,177.082 89.8125,325.75 207.22266,441.9336 120.80859,119.5273 270.42187,189.2344 444.72265,207.2734 h 110.99608 c 172.93361,-17.25 321.60161,-86.957 441.87501,-207.25 121.5977,-121.5937 192.2696,-270.2617 210.0508,-441.9023 V 847.403 C 1602.0749,673.27409 1532.3483,524.59831 1413.9968,405.44987 1297.0554,287.72722 1148.3757,218.00847 972.08659,198.23112"
     id="path1" />
  <path
     fill="none"
     stroke-width="13.931"
     stroke-linecap="butt"
     stroke-linejoin="miter"
     stroke="#60716E"
     stroke-opacity="1"
     stroke-miterlimit="10"
     d="m 1655.3288,907.60222 c 0,413.30858 -335.0547,748.38278 -748.37502,748.38278 -413.31249,0 -748.36719,-335.0742 -748.36719,-748.38278 0,-413.32031 335.0547,-748.375 748.36719,-748.375 413.32032,0 748.37502,335.05469 748.37502,748.375 z m 0,0"
     id="path2" />
  <path
     fill="none"
     stroke-width="13.931"
     stroke-linecap="butt"
     stroke-linejoin="miter"
     stroke="#60716E"
     stroke-opacity="1"
     stroke-miterlimit="10"
     d="m 1655.3288,907.60222 c 0,413.30858 -335.0547,748.38278 -748.37502,748.38278 -413.31249,0 -748.36719,-335.0742 -748.36719,-748.38278 0,-413.32031 335.0547,-748.375 748.36719,-748.375 413.32032,0 748.37502,335.05469 748.37502,748.375 z m 0,0"
     id="path3" />
  <path
     fill-rule="nonzero"
     fill="#60716E"
     fill-opacity="1"
     d="m 94.395187,893.09441 c 0.99219,8.21484 -4.85938,15.69919 -13.07422,16.69529 -8.22266,1 -15.69531,-4.84764 -16.69531,-13.06248 -0.99219,-8.2461 4.85937,-15.70313 13.08594,-16.70313 8.22265,-1 15.68359,4.85157 16.68359,13.07032"
     id="path4" />
  <path
     fill-rule="nonzero"
     fill="#60716E"
     fill-opacity="1"
     d="m 1722.5554,893.09441 c -0.9922,8.21484 4.8593,15.69919 13.0742,16.69529 8.2226,1 15.6953,-4.84764 16.6914,-13.06248 0.9961,-8.2461 -4.8555,-15.70313 -13.086,-16.70313 -8.2187,-1 -15.6796,4.85157 -16.6796,13.07032"
     id="path5" />
  <path
     fill-rule="evenodd"
     fill="#60716E"
     fill-opacity="1"
     d="m 905.81706,1770.4694 h -6.20312 c -6.97656,-2.2305 -4.21484,-10.8164 -3.875,-17.8437 0.73437,-15.4258 -0.73438,-30.7657 0,-46.5274 0.40625,-8.9492 -1.08203,-15.8086 6.20312,-17.0742 9.65233,-1.6641 8.73433,5.4687 8.53513,13.1836 -0.4492,17.0547 -0.027,30.5781 -0.7812,46.543 -0.4492,9.5703 1.7344,20.582 -3.87893,21.7187"
     id="path6" />
  <path
     fill-rule="evenodd"
     fill="#60716E"
     fill-opacity="1"
     d="m 947.69989,1768.9108 c -11.293,2.5586 -8.3516,-18.8164 -9.3125,-34.1211 -0.25,-4.2383 -1.3945,-13.5547 -1.5586,-16.2812 -0.7539,-13.3282 -5.8125,-35.0547 9.3281,-30.25 5.1836,1.6445 7.6055,13.5547 10.0821,19.3867 1.6171,3.8359 5.746,14.0859 8.5273,17.0664 3.9727,4.2422 1.9805,-15.6523 1.5508,-22.5039 -0.3438,-5.5899 -1.9805,-12.082 0.7695,-14.7344 1.4297,-1.3633 8.1953,-1.7656 10.0899,0 3.3164,3.125 1.996,13.7891 2.3242,18.625 0.7539,11.5039 2.5898,36.2031 3.1093,48.8555 0.1758,4.789 1.7813,9.4609 -0.7851,11.6289 -1.543,1.3203 -8.957,1.5547 -10.8555,0.7773 -3.25,-1.332 -6.9375,-11.6601 -9.3125,-17.0547 -1.2969,-2.9843 -2.9844,-9.7109 -5.4179,-13.9648 -7.9141,-13.7539 -0.5196,25.0742 -3.1094,30.2422 -0.9531,1.9062 -2.8789,1.75 -5.4297,2.3281"
     id="path7" />
  <path
     fill-rule="evenodd"
     fill="#60716E"
     fill-opacity="1"
     d="m 852.31316,1768.1296 c -8.02735,1.8476 -19.57813,-0.3086 -24.0586,-6.9649 -3.98046,-5.9414 -4.91796,-18.1289 -1.54687,-20.9531 2.16406,-1.8008 9.53906,-0.9531 10.85937,0 4.92188,3.5781 -0.52343,14.6719 7.75391,15.5156 9.94531,1.0156 7.83594,-18.0664 8.53516,-27.9219 0.51172,-7.1015 5.01562,-28.5351 -4.65235,-28.6992 -9.13281,-0.1484 -4.55078,12.2852 -8.53515,15.5117 -2.21875,1.8008 -10.57032,1.4141 -12.41407,-0.7773 -4.55078,-5.3945 2.12891,-20.1953 5.4336,-23.2617 11.38672,-10.5586 33.74609,-3.4102 36.46094,10.8633 1.44921,7.7187 -0.81641,16.0156 -1.56641,26.3632 -1.46875,20.5821 0.35547,36.4922 -16.26953,40.3243"
     id="path8" />
  <path
     fill-rule="evenodd"
     fill="#60716E"
     fill-opacity="1"
     d="m 1025.2663,1711.5124 c -2.6797,-0.9571 -5.5859,1.0429 -6.2188,2.3281 -0.7539,1.5781 1.1446,5.5391 2.3321,9.3125 1.0429,3.3203 2.5937,11.3867 5.4219,8.5234 2.4101,-2.414 1.9453,-18.8906 -1.5352,-20.164 m 3.8633,49.6523 c -8.0742,0.7266 -8.586,-0.8945 -11.6328,-9.3125 -5.3125,-14.7812 -9.8399,-31.0195 -15.5078,-47.3125 -1.7774,-5.1054 -7.76961,-15.4531 -5.42971,-19.3906 1.3945,-2.3477 7.83591,-2.4766 10.08201,-1.5508 4.0937,1.6875 3.0937,3.168 4.6602,6.9766 2.2304,5.4765 2.8632,9.0742 10.0781,7.7695 0.7773,-0.1445 4.8906,-0.3867 6.1992,-2.332 2.4609,-3.625 -1.4922,-11.4688 1.5508,-15.5117 1.5351,-2.0313 9.2851,-2.8399 10.8633,-1.5547 4.082,3.3515 1.3867,26.4336 0.7734,40.3203 -0.4258,9.8086 -1.2852,19.1094 -1.543,24.832 -0.6054,13.1875 0.6602,16.0703 -10.0937,17.0664"
     id="path9" />
  <path
     fill-rule="evenodd"
     fill="#60716E"
     fill-opacity="1"
     d="m 747.60222,1754.1686 c -9.83594,2.1289 -21.12891,-1.4726 -24.81641,-9.2968 -3.16796,-6.7344 -2.32031,-16.7461 8.53125,-13.1954 6.11329,2.0196 3.60938,9.9454 10.08594,10.086 13.01172,0.3008 3.07031,-16.1016 0.76953,-19.3906 -6.69922,-9.586 -13.80859,-15.3516 -13.95703,-27.918 -0.3164,-25.5742 33.10938,-28.711 41.10547,-10.8555 0.98047,2.2031 3.82813,11.6875 0.77344,14.7461 -1.29688,1.293 -8.33985,1.5391 -10.08594,0.7617 -4.95703,-2.1836 -2.10156,-11.8281 -8.53125,-13.1836 -0.93359,-0.1875 -6.63672,-0.9218 -8.53125,3.8868 -4.33594,11.0546 14.14844,23.6718 17.84375,34.1132 4.32422,12.2422 1.09766,27.1797 -13.1875,30.2461"
     id="path10" />
  <path
     fill-rule="evenodd"
     fill="#60716E"
     fill-opacity="1"
     d="m 1098.153,1749.5163 c -9.293,1.5742 -17.1836,-1.1211 -21.707,-8.5235 -2.0625,-3.3671 -4.5195,-9.3593 -3.1016,-12.414 1.2774,-2.7539 7.8555,-4.8086 11.6289,-3.1016 4.6563,2.1172 1.6289,11.6524 9.3125,11.6328 10.9336,-0.027 3.2578,-20.9023 1.5469,-27.914 -2.1094,-8.6875 -3.4727,-26.8711 -10.082,-27.9258 -6.8086,-1.0859 -10.375,9.8047 -6.2032,15.5117 2.543,3.4805 13.125,0.02 10.8555,10.0859 -0.7734,3.4336 -4.2773,4.2657 -8.5312,5.4297 -3.3711,0.9258 -9.4805,2.4688 -11.6289,1.543 -3.3204,-1.4102 -12.3789,-36.3516 -8.5313,-39.5469 2.9375,-2.457 7.1289,1.0469 8.5313,0.7735 3.4609,-0.6719 6.332,-5.7618 10.0781,-6.9766 8,-2.6016 18.625,1.7461 22.4961,8.5195 3.0273,5.3203 4.4687,15.3946 6.9726,26.3828 2.5547,11.1485 5.6719,22.0665 5.4414,27.9219 -0.4882,12.2071 -9.332,17.3125 -17.0781,18.6016"
     id="path11" />
  <path
     fill-rule="evenodd"
     fill="#60716E"
     fill-opacity="1"
     d="m 691.77019,1741.7624 c -3.07813,1.5781 -10.02734,0.707 -11.64063,-3.0938 -2.82031,-6.6797 7.29297,-17.3398 3.10938,-20.1601 -3.07031,-2.0821 -14.4375,15.5 -17.07422,16.2812 -4.12109,1.2188 -9.97266,0.1797 -11.625,-3.1133 -1.98047,-3.8906 6.64453,-10.3242 8.52344,-12.4101 4.77344,-5.2695 8.8125,-8.418 10.08984,-12.3985 2.44141,-7.6992 -0.28125,-22.5234 -0.77734,-32.5742 -0.0937,-1.7617 -3.23047,-15.4023 0,-18.6133 2.82812,-2.8437 10.53515,0.3086 11.63672,1.5508 4.0664,4.6016 -1.45313,50.8321 9.30078,29.4688 2.95312,-5.8711 3.875,-22.2774 9.30469,-24.0391 1.13671,-0.375 9.58593,1 10.85546,3.8789 0.9336,2.0781 -2.00781,12.7578 -3.87109,19.3828 -2.81641,9.9414 -8.02344,25.8633 -10.86328,35.6797 -1.71875,5.9727 -1.75391,17.4961 -6.96875,20.1602"
     id="path12" />
  <path
     fill-rule="evenodd"
     fill="#60716E"
     fill-opacity="1"
     d="m 1167.9616,1716.9499 c 3.2852,-3.7891 -4.3476,-21.2656 -5.4219,-21.7149 -3.3867,-1.4257 -8.5859,1.1602 -10.0898,4.6524 -3.6484,8.4765 4.7305,20.0078 11.6367,17.8359 0.5352,-0.168 2.9297,0.3281 3.875,-0.7734 m -6.9726,13.9648 c -15.5157,0.9844 -25.8672,-13.4961 -23.2696,-31.0273 0.4805,-3.2696 2.6094,-6.1563 2.3281,-9.3086 -0.3437,-3.7383 -5.3203,-10.125 -8.539,-14.7305 -2.7422,-3.9375 -9.9844,-10.0664 -9.2969,-13.9648 0.707,-4.0469 5.5508,-5.8282 9.2969,-5.4336 4.0898,0.4336 8.4336,7.2109 12.4219,13.1953 3.8554,5.7891 7.7461,14.5586 11.625,13.1758 8.0976,-2.875 -7.375,-23.9297 -4.6524,-31.0157 0.9766,-2.5703 6.5547,-5.6406 10.8555,-3.8828 3.3906,1.3946 5.9336,11.3282 7.7539,17.0664 4.918,15.4727 6.7812,23.0039 11.6328,38.0039 1.4727,4.5469 7.2773,14.3829 5.4258,19.379 -1.6094,4.4257 -20.2813,8.2031 -25.582,8.5429"
     id="path13" />
  <path
     fill-rule="evenodd"
     fill="#60716E"
     fill-opacity="1"
     d="m 626.60222,1722.3718 c -3.76953,1.4765 -9.90234,-1.2461 -10.85547,-3.8633 -1.16406,-3.2578 4.3125,-16.9883 5.44141,-20.1641 5.17578,-14.7187 8.70312,-22.3437 13.95703,-37.2344 1.8125,-5.1289 3.21094,-15.7539 7.75781,-17.0586 2.82031,-0.8242 10.05078,2.6641 10.85547,5.4219 0.90234,3.0781 -3.91016,12.043 -6.20312,18.6172 -4.50391,12.8945 -8.11719,23.418 -12.41016,35.668 -2.13672,6.0742 -3.06641,16.4961 -8.54297,18.6133"
     id="path14" />
  <path
     fill-rule="evenodd"
     fill="#60716E"
     fill-opacity="1"
     d="m 1230.7858,1676.61 c -4.0273,-9.7617 -12.0937,-36.164 -20.1758,-35.6679 -9.2109,0.5703 -5.0585,11.9648 -2.3125,18.6093 1.7032,4.1563 3.7969,8.4883 5.4219,12.4141 4.6055,11.1094 7.7188,23.4609 14.7422,22.4883 9.1875,-1.2735 5.6641,-9.7188 2.3242,-17.8438 m 0,31.0352 c -19.6836,3.4062 -22.0859,-9.7852 -29.4726,-27.9258 -5.0117,-12.2891 -13.6407,-24.6523 -10.8633,-36.4531 2.4609,-10.3672 15.0586,-18.6719 28.6953,-15.5078 12.8945,2.9804 19.668,30.0976 25.5977,44.9883 2.1796,5.457 5.6054,11.8046 4.6601,18.6054 -1.3047,9.3516 -10.2109,14.8438 -18.6172,16.293"
     id="path15" />
  <path
     fill-rule="evenodd"
     fill="#60716E"
     fill-opacity="1"
     d="m 585.50456,1706.8678 c -4.5039,1.754 -11.48828,-2.0664 -11.63671,-6.2031 -0.42969,-12.6054 5.58984,-48.9883 -4.65625,-27.9179 -2.45313,5.0625 -6.76563,22.0273 -11.625,23.2656 -2.69922,0.6875 -8.41797,-1.7617 -9.30469,-4.6602 -1.19531,-3.9375 4.49219,-13.6328 6.98047,-19.3867 6.23047,-14.418 9.13672,-20.8906 15.50781,-35.6758 2.17969,-5.0429 5.08984,-15.9883 8.53125,-17.0664 5.72266,-1.7695 10.10156,3.1758 10.85547,5.4336 0.80469,2.375 -0.53516,5.8828 -0.76953,9.3047 -0.30469,4.2109 -0.36719,10.668 -0.78125,16.2852 -0.28516,3.9023 -1.85157,13.5039 0,14.7421 2.35547,1.5625 15.28515,-24.1718 3.10156,-3.8789 2.0625,-3.4336 4.42187,-9.0351 6.21875,-13.1875 3.14062,-7.3554 4.83594,-15.8711 9.28906,-17.0664 3.46875,-0.914 8.65235,2.5821 9.32031,4.6641 1.00782,3.1719 -3.61718,12.5703 -6.21093,18.6055 -3.01172,7.0117 -5.22266,11.2031 -7.7461,17.0664 -6.99218,16.207 -8.18359,23.6172 -14.74218,34.9062 -0.41407,0.707 -1.47657,0.4297 -2.33204,0.7695"
     id="path16" />
  <path
     fill-rule="evenodd"
     fill="#60716E"
     fill-opacity="1"
     d="m 1316.114,1667.3132 c -6.9102,1.3671 -6.379,-2.7891 -7.7696,-10.0821 -1.8242,-9.5898 -3.2148,-25.2422 -6.2031,-34.9023 -2.625,-8.4531 -8.7539,-14.4102 -12.4141,-21.7188 -0.6875,-1.3945 -3.0937,-5.0586 -2.3281,-8.5195 0.7305,-3.2891 7.0234,-6.8945 10.0899,-6.2148 3.121,0.7031 7.2656,10.4218 9.3046,13.9687 3.5586,6.168 4.9922,9.6914 8.5313,13.9492 7.1484,8.6055 17.7383,15.6641 27.1406,24.0508 3.4024,3.0274 11.7813,8.4375 3.8906,13.1719 -9.4531,5.6836 -16.7187,-7.3242 -24.0546,-12.4024 -9.1329,-6.3164 2.1523,15.4844 0,23.2696 -0.8907,3.2304 -3.2227,4.8398 -6.1875,5.4297"
     id="path17" />
  <path
     fill-rule="evenodd"
     fill="#60716E"
     fill-opacity="1"
     d="m 481.58269,1654.9069 c -10.57422,1.4219 -23.5625,-6.25 -24.81641,-17.8437 -0.98828,-9.0274 4.08203,-22.6993 13.95703,-17.0586 0.94141,0.5312 3.58594,2.8007 3.86329,3.8789 1.13281,4.0586 -4.03907,7.8203 -3.08594,12.4062 2.19531,10.5703 11.60547,2.5039 15.5039,-3.8789 4.57813,-7.4531 9.17188,-14.9375 13.96094,-23.2617 3.19141,-5.5469 9.76953,-18.25 -0.77344,-18.6211 -6.6875,-0.2305 -5.69921,9.8125 -12.40625,10.8555 -5.94531,0.9297 -9.96484,-5.6289 -10.08984,-6.1953 -0.9375,-4.5625 8.64063,-16.1211 13.98047,-17.8399 13.60156,-4.3945 28.64844,6.9102 29.45703,18.6016 0.63672,9.3359 -7.52344,20.5664 -13.17969,30.2578 -5.78125,9.8828 -12.51953,26.8359 -26.37109,28.6992"
     id="path18" />
  <path
     fill-rule="evenodd"
     fill="#60716E"
     fill-opacity="1"
     d="m 1384.3522,1626.2077 c -7.8632,2.0078 -10.1093,-6.5391 -13.9648,-12.4141 -6.9766,-10.6367 -11.332,-16.2695 -18.6172,-27.1406 -2.9375,-4.3945 -6.3281,-12.5977 -9.3047,-13.1914 -5.1719,-1.0117 -11.4492,8.8242 -16.2773,8.5391 -1.5508,-0.094 -7.3282,-2.0352 -6.9883,-7.7539 0.2891,-4.7305 8.4648,-8.2852 12.4101,-10.8555 4.0586,-2.6524 11.1407,-8.7539 14.7461,-8.5313 5.25,0.3125 8.7657,9.8907 12.4063,15.5039 7.1953,11.1329 14.6094,21.9414 21.707,32.5743 3.9649,5.9257 17.2149,19.8671 3.8828,23.2695"
     id="path19" />
  <path
     fill-rule="evenodd"
     fill="#60716E"
     fill-opacity="1"
     d="m 440.48113,1573.4616 c -0.59766,-1.3789 -3.62891,-2.3789 -4.66016,-2.3164 -2.20312,0.1289 -9.91016,13.5156 -9.3125,17.8398 0.21875,1.5313 1.25391,-0.031 1.55859,0 2.46094,0.2657 14.4336,-10.7382 12.41407,-15.5234 m -21.71875,42.6562 c -3.72657,0.9532 -13.77344,-3.25 -14.73828,-8.5195 -0.92579,-5.0625 5.30468,-13.2461 7.7539,-18.6133 6.16797,-13.582 9.625,-22.1601 16.28906,-36.4531 2.36719,-5.082 6.6211,-16.3437 9.3086,-17.0703 3.80859,-1.0234 9.66406,3.9219 10.07812,6.9844 0.89063,6.4218 -9.69922,12.0664 -1.55468,18.6172 0.77734,0.6171 4.15234,3.1211 5.43359,3.0937 8.94531,-0.1641 9.36719,-15.7266 19.39062,-7.7539 2.23438,1.7773 3.02735,3.1641 3.10547,4.6602 0.17969,3.4492 -10.57422,12.875 -12.41015,14.7265 -5.3125,5.3281 -10.31641,9.5352 -13.96485,13.1953 -10.3164,10.3203 -17.13281,18.2735 -27.14843,26.375 -0.58985,0.4727 -0.55469,0.5157 -1.54297,0.7578"
     id="path20" />
  <path
     fill-rule="evenodd"
     fill="#60716E"
     fill-opacity="1"
     d="m 1421.5827,1565.7077 c -3.3164,-4.3164 -5.5547,-6.9766 -8.5391,-10.8477 -5.5898,-7.2734 -14.4765,-20.5078 -18.6093,-20.164 -2.2071,0.164 -6.2188,5.0156 -6.2071,8.5312 0,5.9453 9.2383,13.7735 14.7344,20.9297 5.5117,7.1914 11.4961,21.2109 20.9453,17.8438 8.3125,-2.9649 1.8242,-10.8555 -2.3242,-16.293 m 2.3242,30.2422 c -17.2851,3.75 -23.0742,-10.1328 -32.5742,-22.4883 -8.1758,-10.5938 -20.0391,-18.7656 -17.0664,-34.1172 1.3242,-6.8281 11.4336,-15.0039 17.8398,-19.3945 1.4688,-1 6.0391,-4.0547 7.7539,-3.8711 3.375,0.3555 9.1016,9.3945 13.1836,14.7265 9.3868,12.2735 14.0821,19.0079 23.2657,31.0352 1.5468,2.0195 11.6445,12.4805 11.6445,15.5078 -0.016,5.7813 -18.6719,17.4453 -24.0469,18.6016"
     id="path21" />
  <path
     fill-rule="evenodd"
     fill="#60716E"
     fill-opacity="1"
     d="m 381.52019,1548.6491 c -0.53125,-4.0898 -4.57813,-5.6719 -8.51953,-5.4219 -5.10547,0.3008 -12.87891,8.9297 -11.64063,15.5039 0.82813,4.3672 4.42969,6.1407 7.76563,5.4258 2.60156,-0.5586 12.92578,-11.5273 12.39453,-15.5078 m -8.51953,34.125 c -0.34375,0.086 -0.66797,1.0078 -1.5625,0.7773 -7.30469,-1.9101 -26.4375,-16.6289 -24.80469,-31.0195 0.97656,-8.7266 8.98438,-18.3594 16.28906,-21.7266 2.74219,-1.2578 7.19922,-0.496 10.07813,-2.3164 3.85937,-2.4492 5.16015,-9.789 7.75781,-16.2929 1.64063,-4.1367 5.33203,-14.7539 7.74609,-15.5078 3.91407,-1.2305 9.34766,2.9375 10.08204,6.9804 0.97265,5.3086 -2.875,9.3594 -6.20313,17.0664 -1.76172,4.086 -7.10937,14.086 -3.09375,16.2813 3.82031,2.082 11.07422,-8.4883 12.40625,-10.0781 4.21875,-5.0469 6.53906,-10.4844 10.84766,-10.8594 2.53515,-0.2149 8.92187,2.7226 9.32812,6.9726 0.29688,3.375 -8.08594,12.1289 -10.86328,15.5118 -11.27344,13.6796 -25.74609,32.1171 -35.68359,43.4375 -0.56641,0.6406 -1.33985,0.5234 -2.32422,0.7734"
     id="path22" />
  <path
     fill-rule="evenodd"
     fill="#60716E"
     fill-opacity="1"
     d="m 1472.7663,1557.9538 c -4.6094,0.6875 -11.5703,-8.8828 -15.5078,-13.1758 -8.8164,-9.6094 -15.8945,-17.9687 -25.5977,-28.6992 -2.6054,-2.8906 -12.2773,-11.1875 -12.3984,-14.7383 -0.1836,-4.5312 4.4883,-8.1992 6.9648,-8.5352 6.0743,-0.8125 12.6172,6.1016 18.625,9.3047 4.4414,2.3868 10.8907,5.9493 17.0664,7.7618 6.1954,1.8203 -1.6796,-6.1368 -3.1093,-7.7618 -4.2578,-4.8086 -18.0547,-16.4297 -17.8438,-21.7148 0.1055,-2.707 3.707,-7.0664 7.7578,-6.9727 3.8282,0.09 11.3633,9.4219 14.7383,13.1758 8.3867,9.3477 16.8008,18.168 26.3672,28.6992 3.3867,3.7344 11.6367,11.5938 11.6367,15.5078 -0.012,5.9415 -6.3242,8.3672 -7.7539,8.5391 -4.2305,0.4844 -11.2969,-4.3086 -17.8476,-7.7539 -2.1094,-1.1172 -22.8125,-13.4297 -15.504,-3.1016 1.7344,2.461 6.8438,7.4063 8.5235,9.3047 3.3828,3.8008 10.8515,8.4336 10.875,13.1836 0,3.4961 -3.1367,6.418 -6.9922,6.9766"
     id="path23" />
  <path
     fill-rule="evenodd"
     fill="#60716E"
     fill-opacity="1"
     d="m 318.7116,1536.2428 c -5.53907,1.1407 -8.26954,-4.5117 -14.74219,-10.8554 -4.89844,-4.7969 -11.47656,-8.0078 -11.625,-12.4141 -0.1211,-3.3672 3.16797,-7.4844 6.20312,-7.7617 4.21094,-0.3672 9.85157,6.7187 13.1836,9.3203 -0.64063,-0.5 1.46875,3.0508 3.875,3.0977 3.93359,0.078 12.33984,-9.625 12.41015,-11.6289 0.23438,-6.1172 -9.67578,-8.961 -9.30468,-13.9649 0.0664,-1.0976 1.48828,-5.6133 6.20703,-6.2031 7.18359,-0.918 6.21093,7.4609 13.18359,7.7539 3.10938,0.1289 14.73438,-9.5195 14.73438,-13.957 0,-5.7305 -13.89844,-9.336 -13.95313,-17.0703 -0.0547,-4.3047 3.95313,-7.4961 6.20313,-7.7579 5.5,-0.6484 11.95312,9.1016 14.72656,11.6368 2.625,2.414 12.27344,9.2148 12.41015,13.957 0.13672,4.6172 -9.08984,11.4141 -12.41015,14.7344 -12.41797,12.4218 -27.51953,30.6054 -39.54688,40.332 -0.60547,0.4805 -0.55468,0.5703 -1.55468,0.7812"
     id="path24" />
  <path
     fill-rule="evenodd"
     fill="#60716E"
     fill-opacity="1"
     d="m 1525.4968,1509.1022 c -3.2188,0.918 -8.8164,-0.5976 -9.2969,-5.4336 -0.7344,-7.3008 11.207,-10.4023 11.6367,-16.2968 0.3008,-4.2891 -8.3789,-12.5118 -12.4062,-12.3985 -3.1133,0.082 -7.0743,8.4375 -12.4219,8.5313 -3.2305,0.055 -6.6094,-2.2266 -6.9805,-6.211 -0.5,-5.4531 7.7578,-6.6523 7.7578,-13.1836 0,-3.5078 -10.1953,-13.914 -13.957,-13.9609 -7.375,-0.098 -10.75,13.5195 -17.0625,13.9609 -2,0.1368 -7.4023,-2.2109 -7.7461,-6.207 -0.4766,-5.3203 9.2656,-12.2734 11.6289,-14.7227 3.668,-3.8437 8.1992,-12.25 13.1797,-12.414 4.9297,-0.168 11.8945,9.0469 15.5156,12.414 10.1602,9.4336 18.711,17.1641 28.6914,27.1407 2.8477,2.8515 12.9922,8.6211 13.1875,13.9609 0.1367,3.7109 -18.3515,23.8399 -21.7265,24.8203"
     id="path25" />
  <path
     fill-rule="evenodd"
     fill="#60716E"
     fill-opacity="1"
     d="m 262.86394,1428.4421 c -0.14453,-4.2188 -6.43359,-7.7969 -10.08203,-7.7618 -5.51563,0.047 -13.0586,7.5235 -13.17969,12.4063 -0.17187,6.8594 4.09375,9.6484 9.30859,8.5312 2.5586,-0.5468 14.10157,-9.2851 13.95313,-13.1757 m -14.73438,32.5703 c -4.97656,0.9023 -9.24218,-4.7305 -13.96484,-10.8633 -5.04687,-6.5742 -10.63281,-13.5781 -8.53125,-24.0352 1.94141,-9.6445 20.43359,-24.6367 34.13281,-18.6171 6.34375,2.7812 9.26563,11.9804 14.73047,12.4062 4.25781,0.3359 8.11328,-5.1133 12.41406,-8.5273 2.96485,-2.3633 8.08594,-8 12.40625,-7.7579 3.02735,0.1719 7.60938,3.211 7.75391,7.7579 0.14844,4.6289 -7.41406,9.332 -13.17578,13.9609 -14.81641,11.8672 -29.99219,24.7227 -44.21484,34.8984 -0.58594,0.4219 -0.54297,0.5977 -1.55079,0.7774"
     id="path26" />
  <path
     fill-rule="evenodd"
     fill="#60716E"
     fill-opacity="1"
     d="m 1570.4929,1458.6843 c -5.3516,1.8125 -13.8399,-6.1172 -18.6172,-10.0821 -10.0039,-8.3125 -18.2813,-15.9101 -30.25,-25.5976 -5.8555,-4.7344 -13.711,-9.9102 -13.9571,-13.1875 -0.1914,-2.4493 4.4414,-9.0274 7.7618,-9.2969 5.3046,-0.4492 12.6796,8.7187 16.2773,11.625 7.9805,6.4648 21.0547,17.3828 30.2422,24.8203 3.9336,3.1836 13.5273,9.3906 13.9726,13.1836 0.4141,3.5898 -2.1679,7.4258 -5.4296,8.5352"
     id="path27" />
  <path
     fill-rule="evenodd"
     fill="#60716E"
     fill-opacity="1"
     d="m 1601.5202,1397.4225 c -0.2852,-4.1015 -15.1289,-13.1054 -17.8516,-12.4218 -2.8281,0.7226 -4.9921,4.8515 -4.6523,8.539 0.6016,6.5625 10.8359,11.4141 14.7344,10.8477 4.3945,-0.625 8,-3.4883 7.7695,-6.9649 m -3.8906,20.9336 c -12.7617,3.3438 -25.8164,-5.664 -30.2461,-13.9687 -1.207,-2.25 -0.4414,-6.6875 -2.3242,-9.3047 -2.9571,-4.0859 -17.4766,-6.9844 -25.5899,-10.082 -2.1562,-0.8164 -6.8554,-0.8477 -7.7617,-3.875 -1.4609,-4.8907 3.918,-9.4571 6.9883,-10.086 3.9492,-0.7969 30.2812,12.7227 33.3437,6.9844 3.1055,-5.8359 -22.5156,-16.25 -23.2656,-21.7188 -0.3555,-2.6015 2.0274,-8.5234 6.9805,-9.3125 5.6601,-0.8789 14.3789,7.5977 17.8359,10.0938 12.5078,9.0469 18.961,14.0117 31.7969,23.2539 3.1992,2.3203 14.3008,8.043 14.7344,12.4219 0.3906,3.9336 -12.5977,20.2539 -15.5118,22.4883 -2.2812,1.7578 -6.2265,2.9062 -6.9804,3.1054"
     id="path28" />
  <path
     fill-rule="evenodd"
     fill="#60716E"
     fill-opacity="1"
     d="m 214.00456,1379.5827 c 2.48829,-1.7969 7.05079,-3.1641 6.98438,-6.9961 -0.0469,-2.6445 -3.58984,-5.8477 -4.65234,-6.2031 -13.51172,-4.3867 -24.72657,19.5312 -10.8711,18.6172 3.82422,-0.25 6.15625,-3.7188 8.53906,-5.418 m -9.30859,24.0351 c -0.28125,0.051 -0.72656,0.8047 -1.55469,0.7696 -5.49609,-0.1914 -14.90625,-15.0586 -17.05468,-20.9375 -5.51563,-15.043 7.83203,-29.6016 21.71875,-31.7969 3.28515,-0.5234 7.28125,1.0547 10.85156,0 5.07812,-1.4844 7.42187,-7.918 11.63672,-13.1836 2.96875,-3.707 9.38672,-12.3672 12.40625,-12.4141 3.61328,-0.047 6.89453,4.9727 6.98047,8.5313 0.17578,7.1602 -11.0586,14.9102 -15.51563,21.7187 -1.57031,2.4219 -4.42187,4.9258 -2.32812,7.7618 2.51953,3.3789 10.4375,-2.293 13.96875,-4.6563 4.53125,-3.0234 9.28906,-8.6992 13.17968,-8.5351 5.47657,0.2226 8.17188,5.4296 7.76172,9.3046 -0.3125,3.0547 -8.41406,8.7032 -13.96484,12.4063 -14.80078,9.9141 -31.96485,22.3242 -46.53125,30.2578 -0.5586,0.3008 -0.57422,0.625 -1.55469,0.7734"
     id="path29" />
  <path
     fill-rule="evenodd"
     fill="#60716E"
     fill-opacity="1"
     d="m 1635.6335,1367.9421 c -2.5938,0.6601 -7.6992,0.1484 -8.5313,-5.4219 -0.6172,-4.25 3.5703,-7.4414 4.6602,-9.3164 1.5312,-2.6602 4.9648,-6.4024 4.6523,-9.3125 -0.3593,-3.2656 -10.8359,-10.3867 -13.9648,-10.0742 -7.1367,0.707 -5.625,11.707 -12.4063,12.4062 -4.7695,0.5039 -7.3593,-3.3515 -7.7578,-5.4336 -1.375,-7.2461 6.3828,-6.9414 5.4375,-13.9531 -0.5703,-4.1563 -7.8359,-6.8086 -13.1914,-10.082 -4.9023,-3.0039 -12.3867,-6.4141 -13.1875,-9.3047 -1.082,-3.9531 1.8242,-9.9024 5.4297,-10.8633 5.2422,-1.3867 14.0313,6.5781 18.6172,9.3008 12.7852,7.6094 20.7695,12.2304 34.125,20.1679 4.4805,2.6719 14.9648,7.8008 15.5156,11.629 0.4805,3.4843 -16.4492,29.5039 -19.3984,30.2578"
     id="path30" />
  <path
     fill-rule="evenodd"
     fill="#60716E"
     fill-opacity="1"
     d="m 182.2155,1318.3014 c 4.33594,-2.4296 8.76172,-4.6211 11.6211,-6.2031 4.8164,-2.668 19.63671,-9.8711 19.39062,-15.5117 -0.44141,-10.0117 -12.84766,-4.7539 -18.60156,-1.5508 -5.07813,2.8125 -8.45703,4.7695 -12.41016,6.9805 -7.48047,4.164 -22.59375,10.0469 -20.94922,17.8398 0.91016,4.3555 5.04688,4.5664 9.30078,3.8711 4.26172,-0.6719 7.8086,-3.2773 11.64844,-5.4258 m -8.54297,20.168 c -13.40625,2.7891 -28.42578,-6.6484 -26.36328,-24.8242 1.46094,-12.9141 16.46094,-17.7305 26.36328,-23.2695 9.35547,-5.2149 22.48047,-16.2032 34.90235,-14.7305 11.82812,1.4062 21.40625,16.0703 17.05859,29.4805 -3.05078,9.4609 -13.96875,13.4414 -23.26953,18.6015 -10.65625,5.9336 -18.79297,12.6719 -28.69141,14.7422"
     id="path31" />
  <path
     fill-rule="evenodd"
     fill="#60716E"
     fill-opacity="1"
     d="m 150.41081,1257.0319 c 3.72657,-1.7148 7.58985,-3.6367 11.62891,-5.4258 3.00781,-1.3359 20.70703,-7.457 20.93359,-13.1836 0.42579,-10.3515 -13.3125,-5.7422 -19.3789,-3.1093 -4.28125,1.8711 -8.36328,4.4023 -12.41406,6.2109 -9.05469,4.0547 -22.03907,6.5859 -20.9375,15.5078 0.67968,5.5117 3.14843,5.1094 7.75781,4.6563 3.70703,-0.3633 8.60156,-2.9141 12.41015,-4.6563 m -17.83593,23.2656 c -0.17578,0.012 -0.84375,0.7813 -1.55078,0.7735 -5.90625,-0.039 -13.15625,-17.6641 -13.95704,-23.2617 -2.69531,-18.6797 11.09375,-23.0469 25.58204,-29.4805 8.08593,-3.5781 16.49609,-8.211 22.5,-10.0742 16.375,-5.0703 23.48046,2.164 29.47656,14.7343 1.65625,3.5235 7.12109,10.5938 6.20312,14.7383 -1.17968,5.211 -28.15625,15.0625 -32.57812,17.0586 -14.32422,6.4844 -23.31641,11.043 -34.13281,15.5117 -0.38672,0.1602 -1.11719,-0.035 -1.54297,0"
     id="path32" />
  <path
     fill-rule="evenodd"
     fill="#60716E"
     fill-opacity="1"
     d="m 1686.0475,1274.8757 c -0.8554,0.2304 -0.2226,0.332 -1.5585,0 -15.5821,-3.8985 -35.0704,-15.5352 -52.7266,-23.2696 -7.5781,-3.3125 -15.293,-5.0351 -16.293,-8.539 -1.2851,-4.4961 2.8985,-10.2891 4.6524,-10.8477 5.164,-1.6406 11.3007,3.5274 15.5117,5.4141 3.9765,1.7968 10.1406,6.4062 14.7383,5.4336 3.5039,-0.7344 6.5429,-4.3321 5.4297,-9.2969 -1.6211,-7.1953 -26.5586,-9.9453 -28.6993,-16.3008 -1.5429,-4.5937 1.5508,-10.6914 5.4258,-11.6211 4.0352,-0.9687 14.3633,5.8711 18.6211,7.7617 13.7383,6.0938 21.3164,8.836 36.4453,15.5 8.668,3.8164 20.1524,6.2969 14.7461,16.2852 -3.4023,6.293 -9.9023,2.7461 -17.8515,-0.7695 -4.9219,-2.1914 -10.3165,-6.0586 -13.1797,-5.4219 -4.4766,0.9805 -6.0118,6.2578 -5.4258,9.3008 1.1797,6.0664 14.9765,8.2851 20.9414,11.6211 2.5234,1.4257 4.8906,2.5312 5.4219,4.6601 1.4687,5.7852 -4.2657,9.5664 -6.1993,10.0899"
     id="path33" />
  <path
     fill-rule="evenodd"
     fill="#60716E"
     fill-opacity="1"
     d="m 104.653,1214.3757 c -0.0898,0 -0.89453,0.7617 -1.55469,0.7773 -4.371093,0.074 -8.281253,-4.5195 -6.984373,-10.082 1.50391,-6.4141 24.265623,-11.3047 31.792973,-13.9649 5.53906,-1.9375 11.42969,-4.1093 17.0625,-6.1953 6.50781,-2.4297 17.89453,-6.164 10.875,-13.9648 -3.73438,-4.1524 -10.875,-0.3633 -16.29297,1.5508 -9.39063,3.3125 -21.98047,7.0742 -32.58203,10.8554 -6.67188,2.3789 -12.785163,6.6328 -17.058603,4.6524 -1.80859,-0.836 -4.30468,-8.3868 -3.87109,-10.0821 0.91406,-3.5898 10.95703,-6.4336 14.734383,-7.7539 9.99218,-3.4961 21.73437,-7.6367 33.34375,-11.6289 8.98828,-3.0976 18.6875,-7.7109 27.92578,-1.5586 7.32422,4.8711 12.46093,19.4961 7.76562,29.4805 -3.46875,7.332 -18.78125,12.4883 -29.48828,16.2852 -13.1875,4.6757 -24.16016,8.7382 -34.11719,11.6289 -0.4414,0.1289 -1.08984,-0.027 -1.55078,0"
     id="path34" />
  <path
     fill-rule="evenodd"
     fill="#60716E"
     fill-opacity="1"
     d="m 1713.1921,1213.61 c -2.211,0.9688 -7.4688,0.7539 -9.3086,-2.3359 -2.4805,-4.1836 2.8594,-6.8984 0.7695,-11.6445 -1.6406,-3.7422 -21.2422,-8.9805 -31.0117,-12.4024 -5.1563,-1.8008 -10.5898,-3.4219 -16.2891,-5.4179 -5.2265,-1.8516 -13.1562,-4.5391 -13.9531,-6.9961 -1.2734,-3.7852 2.7734,-10.3711 3.8711,-10.8477 3.9023,-1.6953 11.2852,1.7891 17.0625,3.875 10.7734,3.8984 18.3984,6.9414 29.4727,10.8633 4.3945,1.5547 11.4921,5.6875 15.5078,4.6484 4.0742,-1.0547 4.0742,-8.1562 7.7617,-9.3047 3.6836,-1.1562 8.6328,1.6719 9.3047,3.1016 1.4023,2.9844 -2.8633,13.707 -4.6524,18.6172 -2.6875,7.3945 -4.6289,16.1094 -8.5351,17.8437"
     id="path35" />
  <path
     fill-rule="evenodd"
     fill="#60716E"
     fill-opacity="1"
     d="m 1729.489,1125.9616 c -1.2383,-3.6172 -18.5118,-8.3789 -21.7266,-6.2109 -2.1758,1.4921 -2.4844,6.082 -1.5586,9.3086 1.6523,5.6914 12.0117,7.414 16.2969,6.207 5.1445,-1.4414 8.414,-5.0508 6.9883,-9.3047 m -4.6602,24.0469 c -11.082,2.0273 -20.2422,-1.6055 -25.5898,-6.2032 -2.0547,-1.7578 -3.5157,-7.1171 -6.9922,-8.539 -3.1289,-1.2852 -10.6993,-0.3516 -18.6055,0 -4.6641,0.2031 -13.9102,2.7695 -16.2891,-0.7735 -1.8789,-2.8242 1.0664,-10.9375 3.8828,-12.414 5.9375,-3.082 31.8477,2.8359 33.3399,-3.8711 1.6016,-7.1641 -27.3086,-7.957 -29.4688,-13.1875 -1.6523,-3.9883 2.4532,-11.0547 3.8829,-11.6289 3.7421,-1.5469 14.9921,3.4219 19.3867,4.6562 14.3203,3.9649 24.9375,6.5469 38.0039,10.0703 6.3125,1.7032 16.082,3.0899 17.8281,6.2032 3.2734,5.8047 -6.4023,29.8242 -11.625,33.3554 -2.6367,1.7813 -6.6094,2.1133 -7.7539,2.3321"
     id="path36" />
  <path
     fill-rule="evenodd"
     fill="#60716E"
     fill-opacity="1"
     d="m 95.348307,1143.0202 c -4.60156,0.6797 -9.41796,1.5976 -13.96484,0 -7.66016,-2.6992 -16.66797,-18.6094 -10.86328,-30.2422 2.54297,-5.0742 18.97656,-17.2812 23.27344,-7.7578 5.73437,12.75 -12.54297,9.4062 -10.85938,19.3906 1.69141,10.1133 24.410163,0.3594 28.691413,-0.7734 8.03906,-2.1446 27.05859,-3.7578 26.375,-12.4102 -0.71875,-8.9961 -11.09766,-2.625 -16.28125,-4.6601 -4.08203,-1.5977 -7.33203,-5.9844 -4.65235,-11.625 3.35157,-7.0743 23.94922,-2.9024 27.90235,0.7773 10.59765,9.8164 7.41406,28.0664 -1.53906,34.125 -5.57813,3.7774 -15.50782,4.7031 -24.03907,6.9688 -8.8164,2.3437 -14.79297,4.8437 -24.042973,6.207"
     id="path37" />
  <path
     fill-rule="evenodd"
     fill="#60716E"
     fill-opacity="1"
     d="m 68.567057,1087.1218 c -8.6875,1.9843 -8.32812,-8.9649 -10.09375,-18.6094 -1.35546,-7.5196 -4.37109,-16.3946 -2.32031,-19.3946 0.91797,-1.3007 7.09375,-4.2304 10.86328,-1.5429 3.26563,2.3164 0.8711,8.4726 3.875,10.0781 3.22657,1.7148 12.32813,-1.4766 17.06641,-2.3164 12.687503,-2.2891 19.156253,-3.7305 32.570313,-6.2188 5.65235,-1.0468 13.86328,-2.6132 16.28516,-0.7695 1.20312,0.9102 3.25,9.0274 1.55859,11.6367 -2.30078,3.5352 -27.0625,5.9688 -32.58203,6.9727 -4.625,0.8516 -10.265623,2.0273 -16.285163,3.1055 -4.375,0.789 -14.12109,2.0273 -15.49609,3.8828 -2.60156,3.4531 5,10.789 -5.44141,13.1758"
     id="path38" />
  <path
     fill-rule="evenodd"
     fill="#60716E"
     fill-opacity="1"
     d="m 1707.7624,1054.6061 c -1.5977,0.9883 -2.3477,4.9532 -0.7734,6.9805 1.9296,2.4766 17.3593,1.707 18.6093,0.7773 4.8516,-3.5546 -16.3945,-8.6484 -17.8359,-7.7578 m 44.2226,20.168 c -0.4101,0.2109 0.078,0.7148 -0.7851,0.7852 -18,1.3125 -38.5469,0 -59.7149,0 -10.371,0 -19.3437,2.4882 -18.6171,-6.9922 0.066,-0.961 0.6054,-4.5039 1.5429,-5.4219 5.3594,-5.3125 15.25,3.4961 18.6172,-5.4297 5.0469,-13.4062 -10.7109,-9.6055 -13.957,-16.293 -1.5508,-3.1836 0.8242,-10.0937 2.3281,-10.8554 4.0586,-2.0469 15.0352,4.2382 20.168,6.1992 14.0898,5.418 23.6679,8.4453 38,13.9687 4.4922,1.7305 15.9804,5.8243 17.0547,8.5235 2.3086,5.7617 -2.5782,14.414 -4.6368,15.5156"
     id="path39" />
  <path
     fill-rule="evenodd"
     fill="#60716E"
     fill-opacity="1"
     d="m 1761.2741,1020.4928 c -1.625,0.9141 -8.1211,1.7071 -10.0742,-2.3398 -2.957,-6.1094 4.5156,-12.3516 0.7851,-18.6094 -2.4921,-4.164 -13.2265,-4.9101 -16.3007,-3.1015 -7.3399,4.3047 0.8398,11.0664 -5.4258,15.5156 -2.1172,1.4883 -7.8516,1.5117 -10.082,-1.5586 -2.8165,-3.8711 1.8515,-10.6523 -0.7735,-14.7383 -1.6211,-2.5117 -15.1367,-5.6328 -19.3906,-3.0976 -4.1289,2.4648 -2.5,7 -3.1016,10.8593 -0.3125,1.9297 -0.086,8.9922 -2.3359,10.8633 -3.1133,2.5899 -9.5234,0.8203 -10.8438,-0.7851 -2.9687,-3.5508 0.168,-13.1602 0.7618,-18.6016 0.6796,-6.2266 0.5586,-15.8906 3.1015,-17.8438 4.8672,-3.7343 33.086,2.3868 39.5547,3.1016 5.2695,0.5781 12.0938,0.6328 20.168,1.543 6.6172,0.7617 17.1289,1.375 18.6172,3.1094 2.7148,3.1289 -0.6993,30.6093 -2.3282,34.121 -0.25,0.5391 -1.7656,1.2305 -2.332,1.5625"
     id="path40" />
  <path
     fill-rule="evenodd"
     fill="#60716E"
     fill-opacity="1"
     d="m 47.317057,1011.4889 v -10.8554 c -0.4375,-7.0157 20.625,-21.3399 20.17579,-5.4297 -0.16407,5.7812 -7.42188,7.6914 -6.98047,12.4062 0.61718,6.5196 5.76172,5.7735 10.07422,4.6524 9.74218,-2.5352 16.20312,-20.4336 22.50781,-25.5899 3.76953,-3.1015 9.292973,-4.8359 14.718753,-6.207 h 3.89062 c 11.56641,3.582 14.04297,4.7461 17.04688,12.4141 1.29297,3.2617 2.3789,9.9336 1.5664,14.7304 -1.48437,8.5977 -15.0625,20.3438 -20.95312,13.1914 -4.58203,-5.5781 0.13672,-9.8593 2.33984,-12.4218 2.53125,-2.9453 9.23438,-6.2188 3.8711,-11.625 -9.57813,-9.6875 -21.261723,12.8007 -23.269533,15.5078 -12.02344,16.2695 -37.49219,24.25 -44.98829,-0.7735"
     id="path41" />
  <path
     fill-rule="evenodd"
     fill="#60716E"
     fill-opacity="1"
     d="m 908.43819,41.25066 h 6.2031 c 6.9805,2.23046 4.2148,10.8125 3.8789,17.83984 -0.7344,15.42578 0.7305,30.76562 0,46.52734 -0.4102,8.95313 1.082,15.8086 -6.207,17.07422 -9.65238,1.66797 -8.73441,-5.46875 -8.53519,-13.18359 0.44922,-17.05469 0.0274,-30.57813 0.78125,-46.54297 0.44922,-9.56641 -1.73437,-20.58203 3.87894,-21.71484"
     id="path42" />
  <path
     fill-rule="evenodd"
     fill="#60716E"
     fill-opacity="1"
     d="m 866.55535,42.80534 c 11.29296,-2.55468 8.35546,18.81641 9.3125,34.1211 0.2539,4.23828 1.39453,13.55468 1.55859,16.28515 0.75391,13.32422 5.81641,35.05078 -9.32422,30.25 -5.18359,-1.64843 -7.60547,-13.55859 -10.08203,-19.38672 -1.62109,-3.83984 -5.75,-14.08984 -8.53125,-17.0664 -3.97266,-4.2461 -1.98047,15.65234 -1.55078,22.5 0.34765,5.58984 1.98047,12.08203 -0.76953,14.73437 -1.42578,1.36719 -8.19532,1.76953 -10.08594,0 -3.32031,-3.12109 -2,-13.78906 -2.32813,-18.625 -0.7539,-11.5039 -2.58984,-36.20312 -3.10546,-48.85156 -0.17969,-4.78906 -1.78516,-9.46484 0.78125,-11.63281 1.54296,-1.32031 8.95703,-1.55078 10.85546,-0.77735 3.25,1.33594 6.9375,11.66016 9.3125,17.05469 1.29688,2.98438 2.98438,9.71485 5.42188,13.96485 7.91016,13.7539 0.51562,-25.07422 3.10937,-30.24219 0.94922,-1.90625 2.875,-1.75 5.42579,-2.32813"
     id="path43" />
  <path
     fill-rule="evenodd"
     fill="#60716E"
     fill-opacity="1"
     d="m 961.94209,43.58659 c 8.0273,-1.84765 19.5781,0.3086 24.0625,6.96875 3.9765,5.9375 4.9179,18.125 1.5429,20.94922 -2.164,1.80469 -9.539,0.95313 -10.8554,0 -4.9258,-3.57812 0.5234,-14.67187 -7.7539,-15.51562 -9.9453,-1.01172 -7.836,18.0664 -8.5391,27.92187 -0.5117,7.10156 -5.0117,28.53516 4.6524,28.69922 9.1367,0.15234 4.5507,-12.28516 8.539,-15.50781 2.2149,-1.80469 10.5664,-1.41406 12.4141,0.77344 4.5508,5.39453 -2.1328,20.19531 -5.4375,23.26562 -11.3867,10.55469 -33.7461,3.40625 -36.461,-10.86328 -1.4492,-7.72266 0.8164,-16.01953 1.5664,-26.36719 1.4688,-20.58203 -0.3554,-36.49219 16.2696,-40.32422"
     id="path44" />
  <path
     fill-rule="evenodd"
     fill="#60716E"
     fill-opacity="1"
     d="m 788.99285,100.20378 c 2.67968,0.95703 5.58203,-1.04297 6.21484,-2.32812 0.75781,-1.57813 -1.14453,-5.53516 -2.33203,-9.3125 -1.03906,-3.31641 -2.59375,-11.38672 -5.42188,-8.52344 -2.40625,2.41797 -1.94531,18.89062 1.53907,20.16406 m -3.86719,-49.64844 c 8.07422,-0.72656 8.58594,0.89063 11.63281,9.3125 5.3125,14.78125 9.84375,31.01563 15.51172,47.3086 1.77344,5.10937 7.76562,15.45312 5.42578,19.39453 -1.39453,2.34375 -7.83594,2.47265 -10.07812,1.54687 -4.09766,-1.68359 -3.09766,-3.16797 -4.66016,-6.97656 -2.23438,-5.47656 -2.86719,-9.07422 -10.08203,-7.76953 -0.77735,0.14453 -4.89063,0.38672 -6.19922,2.33203 -2.46094,3.625 1.49219,11.46875 -1.55078,15.51172 -1.53516,2.03125 -9.28125,2.84375 -10.86328,1.55859 -4.07813,-3.35547 -1.38672,-26.4375 -0.77344,-40.32422 0.42969,-9.80859 1.28516,-19.10937 1.54297,-24.82812 0.60547,-13.1875 -0.66016,-16.07422 10.09375,-17.06641"
     id="path45" />
  <path
     fill-rule="evenodd"
     fill="#60716E"
     fill-opacity="1"
     d="m 1066.6569,57.54753 c 9.836,-2.12891 21.1289,1.47266 24.8125,9.29688 3.1719,6.73437 2.3203,16.74609 -8.5312,13.19531 -6.1133,-2.01953 -3.6094,-9.94141 -10.086,-10.08594 -13.0117,-0.30078 -3.0664,16.10156 -0.7656,19.39453 6.6992,9.58203 13.8047,15.35156 13.957,27.91406 0.3125,25.57813 -33.1132,28.71094 -41.1093,10.85547 -0.9766,-2.20312 -3.8282,-11.68359 -0.7735,-14.74609 1.3008,-1.29297 8.3399,-1.53516 10.0899,-0.76172 4.957,2.18359 2.1015,11.82813 8.5273,13.18359 0.9336,0.19141 6.6406,0.92579 8.5313,-3.88281 4.3398,-11.05469 -14.1485,-23.67187 -17.8438,-34.11328 -4.3242,-12.24609 -1.0937,-27.18359 13.1914,-30.25"
     id="path46" />
  <path
     fill-rule="evenodd"
     fill="#60716E"
     fill-opacity="1"
     d="m 716.10613,62.19987 c 9.29297,-1.57031 17.18359,1.1211 21.70703,8.52344 2.05859,3.36719 4.51562,9.35938 3.10156,12.41406 -1.28125,2.75391 -7.85937,4.8086 -11.63281,3.10157 -4.65235,-2.11719 -1.625,-11.65235 -9.3125,-11.63282 -10.92969,0.0273 -3.25781,20.90235 -1.54297,27.91797 2.10937,8.6836 3.46875,26.86719 10.07812,27.92188 6.8086,1.08984 10.375,-9.80078 6.20704,-15.50781 -2.54688,-3.48438 -13.12891,-0.0234 -10.85547,-10.08985 0.77343,-3.43359 4.27734,-4.26562 8.52734,-5.42578 3.375,-0.92578 9.48438,-2.46875 11.62891,-1.54687 3.32031,1.41015 12.38281,36.35156 8.53125,39.55078 -2.9375,2.45312 -7.12891,-1.04688 -8.53125,-0.77735 -3.46094,0.67188 -6.32813,5.76172 -10.07813,6.98047 -8,2.59766 -18.625,-1.75 -22.49219,-8.52344 -3.02734,-5.32031 -4.47265,-15.39453 -6.97656,-26.3789 -2.55469,-11.14844 -5.67187,-22.06641 -5.4375,-27.92188 0.48828,-12.21093 9.33203,-17.3125 17.07813,-18.60547"
     id="path47" />
  <path
     fill-rule="evenodd"
     fill="#60716E"
     fill-opacity="1"
     d="m 1122.489,69.95378 c 3.0742,-1.57812 10.0234,-0.70703 11.6406,3.09766 2.8203,6.67578 -7.293,17.33593 -3.1133,20.16015 3.0703,2.08203 14.4375,-15.5039 17.0742,-16.28515 4.125,-1.21875 9.9727,-0.17578 11.625,3.11328 1.9805,3.89453 -6.6445,10.32812 -8.5195,12.41015 -4.7774,5.26954 -8.8164,8.42188 -10.0899,12.39844 -2.4414,7.69922 0.2774,22.52344 0.7774,32.57813 0.094,1.75781 3.2305,15.39843 0,18.60937 -2.832,2.84375 -10.5391,-0.30859 -11.6406,-1.55078 -4.0664,-4.59766 1.457,-50.83203 -9.2969,-29.46875 -2.9531,5.87109 -3.8789,22.27734 -9.3086,24.03906 -1.1328,0.375 -9.582,-0.99609 -10.8555,-3.875 -0.9336,-2.08203 2.0078,-12.76172 3.8711,-19.38672 2.8164,-9.9375 8.0274,-25.86328 10.8633,-35.67968 1.7227,-5.96875 1.7539,-17.49219 6.9727,-20.16016"
     id="path48" />
  <path
     fill-rule="evenodd"
     fill="#60716E"
     fill-opacity="1"
     d="m 646.29363,94.77019 c -3.28516,3.78515 4.34765,21.26172 5.42187,21.71093 3.39063,1.42969 8.58594,-1.15625 10.08985,-4.65234 3.65234,-8.47656 -4.73047,-20.00781 -11.63282,-17.83594 -0.53906,0.17188 -2.92968,-0.32422 -3.8789,0.77735 m 6.97265,-13.96875 c 15.51953,-0.98438 25.86719,13.49609 23.27344,31.02734 -0.48437,3.26953 -2.61328,6.15625 -2.32812,9.3125 0.33984,3.73438 5.32031,10.12109 8.53515,14.72656 2.74219,3.9375 9.98828,10.06641 9.30078,13.96485 -0.70703,4.04687 -5.55078,5.82812 -9.30078,5.43359 -4.08594,-0.43359 -8.43359,-7.21094 -12.41797,-13.19531 -3.85937,-5.78906 -7.75,-14.5586 -11.625,-13.17578 -8.10156,2.8789 7.3711,23.92968 4.65235,31.01562 -0.98047,2.57422 -6.5586,5.64063 -10.85938,3.88672 -3.39062,-1.39453 -5.92969,-11.33203 -7.7539,-17.06641 -4.91797,-15.47656 -6.78125,-23.0039 -11.62891,-38.0039 -1.47656,-4.55078 -7.28125,-14.38672 -5.42969,-19.37891 1.61328,-4.42969 20.28516,-8.20703 25.58203,-8.54687"
     id="path49" />
  <path
     fill-rule="evenodd"
     fill="#60716E"
     fill-opacity="1"
     d="m 1187.653,89.34831 c 3.7695,-1.47656 9.9024,1.2461 10.8555,3.86328 1.164,3.25782 -4.3125,16.98438 -5.4414,20.16016 -5.1758,14.71875 -8.6992,22.34766 -13.9571,37.23437 -1.8085,5.12891 -3.2109,15.75391 -7.7539,17.0625 -2.8242,0.82032 -10.0546,-2.66796 -10.8554,-5.42187 -0.9063,-3.08203 3.9101,-12.04688 6.2031,-18.61719 4.5039,-12.89844 8.1133,-23.42187 12.4062,-35.67187 2.1368,-6.07422 3.0665,-16.4961 8.543,-18.60938"
     id="path50" />
  <path
     fill-rule="evenodd"
     fill="#60716E"
     fill-opacity="1"
     d="m 583.46941,135.10612 c 4.02734,9.76172 12.09375,36.16797 20.17578,35.66797 9.21094,-0.57031 5.0625,-11.96484 2.3125,-18.60937 -1.69922,-4.15625 -3.79688,-8.48828 -5.42188,-12.41406 -4.60156,-11.10547 -7.71875,-23.46094 -14.73828,-22.48829 -9.1914,1.27344 -5.66797,9.72266 -2.32812,17.84375 m 0,-31.03125 c 19.6875,-3.41015 22.08594,9.78125 29.47656,27.92188 5.01172,12.28906 13.63672,24.65234 10.85938,36.45312 -2.46094,10.36719 -15.0586,18.67188 -28.69532,15.50782 -12.89062,-2.98047 -19.66406,-30.09766 -25.59765,-44.98828 -2.17578,-5.45704 -5.60547,-11.80469 -4.66016,-18.60547 1.30859,-9.35157 10.21094,-14.83985 18.61719,-16.28907"
     id="path51" />
  <path
     fill-rule="evenodd"
     fill="#60716E"
     fill-opacity="1"
     d="m 1228.7507,104.84831 c 4.5039,-1.7539 11.4922,2.06641 11.6406,6.20313 0.4297,12.60547 -5.5938,48.99218 4.6523,27.91797 2.4532,-5.0625 6.7696,-22.02344 11.625,-23.26563 2.6993,-0.68359 8.4219,1.76563 9.3047,4.66016 1.1992,3.9414 -4.4883,13.63281 -6.9804,19.38672 -6.2266,14.42187 -9.1329,20.89062 -15.5079,35.67968 -2.1757,5.03907 -5.0859,15.98438 -8.5273,17.06641 -5.7227,1.76562 -10.1016,-3.17578 -10.8555,-5.4375 -0.8047,-2.375 0.5352,-5.88281 0.7657,-9.30469 0.3046,-4.21094 0.3671,-10.66406 0.7812,-16.28515 0.2891,-3.90235 1.8516,-13.5 0,-14.73829 -2.3516,-1.5664 -15.2851,24.16797 -3.1016,3.87891 -2.0585,3.43359 -4.4179,9.03125 -6.2148,13.1875 -3.1445,7.35156 -4.8398,15.86719 -9.293,17.06641 -3.4687,0.91015 -8.6523,-2.58594 -9.3203,-4.66797 -1.0039,-3.16797 3.6211,-12.57031 6.211,-18.60156 3.0117,-7.01563 5.2226,-11.20313 7.75,-17.06641 6.9921,-16.21094 8.1796,-23.61719 14.7382,-34.91016 0.418,-0.70703 1.4766,-0.42968 2.3321,-0.76953"
     id="path52" />
  <path
     fill-rule="evenodd"
     fill="#60716E"
     fill-opacity="1"
     d="m 498.14519,144.403 c 6.91016,-1.36719 6.37891,2.78906 7.76562,10.08203 1.82422,9.58984 3.21875,25.24219 6.20704,34.90234 2.62109,8.45313 8.7539,14.41407 12.41015,21.71875 0.6875,1.39454 3.09375,5.0625 2.32813,8.52344 -0.73047,3.28516 -7.01953,6.89063 -10.08985,6.21094 -3.12109,-0.70313 -7.26172,-10.42188 -9.30468,-13.96484 -3.55469,-6.17188 -4.99219,-9.69532 -8.52735,-13.95313 -7.14844,-8.60547 -17.74219,-15.66406 -27.14453,-24.05078 -3.39844,-3.02734 -11.78125,-8.4375 -3.89062,-13.16797 9.45703,-5.6875 16.72265,7.32422 24.05468,12.39844 9.13672,6.32031 -2.14843,-15.48047 0,-23.26953 0.89063,-3.23047 3.22266,-4.83594 6.19141,-5.42969"
     id="path53" />
  <path
     fill-rule="evenodd"
     fill="#60716E"
     fill-opacity="1"
     d="m 1332.6765,156.81316 c 10.5703,-1.42188 23.5625,6.25 24.8125,17.83984 0.9882,9.02734 -4.0821,22.69922 -13.9571,17.05859 -0.9375,-0.52734 -3.5859,-2.80078 -3.8633,-3.875 -1.1289,-4.0625 4.0391,-7.82422 3.0899,-12.40625 -2.1992,-10.57422 -11.6055,-2.5039 -15.5039,3.875 -4.5781,7.45703 -9.1758,14.9375 -13.9649,23.26172 -3.1914,5.54688 -9.7695,18.25391 0.7774,18.6211 6.6836,0.23046 5.6992,-9.8086 12.4062,-10.85547 5.9453,-0.92578 9.9649,5.63281 10.086,6.19531 0.9375,4.5625 -8.6368,16.12109 -13.9766,17.84375 -13.6055,4.39062 -28.6523,-6.91406 -29.4609,-18.60547 -0.6328,-9.33203 7.5234,-20.5625 13.1836,-30.25781 5.7812,-9.88281 12.5156,-26.83203 26.3711,-28.69531"
     id="path54" />
  <path
     fill-rule="evenodd"
     fill="#60716E"
     fill-opacity="1"
     d="m 429.903,185.50847 c 7.86328,-2.00391 10.10938,6.53906 13.96485,12.41406 6.98046,10.64063 11.33203,16.26953 18.62109,27.14063 2.9375,4.39453 6.32422,12.59765 9.30469,13.1914 5.16797,1.01172 11.44531,-8.82422 16.27734,-8.53906 1.55078,0.0977 7.32422,2.03516 6.98438,7.75391 -0.28516,4.73046 -8.46094,8.28515 -12.40625,10.85937 -4.0625,2.65234 -11.14454,8.75391 -14.7461,8.52734 -5.2539,-0.3125 -8.76953,-9.88671 -12.41015,-15.5 -7.19532,-11.13671 -14.60938,-21.94531 -21.70313,-32.57812 -3.96875,-5.92578 -17.21875,-19.86719 -3.88672,-23.26953"
     id="path55" />
  <path
     fill-rule="evenodd"
     fill="#60716E"
     fill-opacity="1"
     d="m 1373.7741,238.25456 c 0.6016,1.37891 3.6328,2.37891 4.6602,2.32031 2.2031,-0.1289 9.9101,-13.51562 9.3125,-17.84375 -0.2188,-1.53125 -1.25,0.0312 -1.5586,0 -2.461,-0.26562 -14.4336,10.74219 -12.4141,15.52344 m 21.7188,-42.65625 c 3.7304,-0.95312 13.7773,3.25 14.7421,8.52344 0.9258,5.05859 -5.3085,13.24219 -7.7539,18.60937 -6.1718,13.58204 -9.625,22.16016 -16.2929,36.45313 -2.3672,5.08203 -6.6172,16.34375 -9.3047,17.07422 -3.8086,1.01953 -9.668,-3.92578 -10.082,-6.98828 -0.8907,-6.42188 9.7031,-12.06641 1.5585,-18.61719 -0.7812,-0.61719 -4.1562,-3.12109 -5.4335,-3.09375 -8.9454,0.16406 -9.3672,15.72656 -19.3946,7.75391 -2.2304,-1.77344 -3.0273,-3.16407 -3.1015,-4.66016 -0.1836,-3.44922 10.5703,-12.875 12.4062,-14.72656 5.3125,-5.32813 10.3203,-9.53516 13.9649,-13.19532 10.3203,-10.32031 17.1367,-18.26953 27.1484,-26.37109 0.5937,-0.47656 0.5586,-0.51953 1.543,-0.76172"
     id="path56" />
  <path
     fill-rule="evenodd"
     fill="#60716E"
     fill-opacity="1"
     d="m 392.67644,246.00847 c 3.3125,4.32031 5.55078,6.98047 8.53516,10.84765 5.59375,7.27344 14.47656,20.51172 18.61328,20.16407 2.20312,-0.16407 6.21875,-5.01563 6.20312,-8.53125 0,-5.94532 -9.23828,-13.77344 -14.73437,-20.92969 -5.50782,-7.19141 -11.4961,-21.21094 -20.94532,-17.84375 -8.3125,2.96875 -1.82031,10.85937 2.32813,16.29297 m -2.32813,-30.24219 c 17.28516,-3.75 23.07422,10.13281 32.57813,22.48828 8.17578,10.59766 20.03906,18.76563 17.06641,34.1211 -1.32813,6.82812 -11.4375,15.0039 -17.84375,19.39062 -1.46875,1 -6.03907,4.05469 -7.75391,3.87109 -3.375,-0.35546 -9.10156,-9.39453 -13.18359,-14.72656 -9.38672,-12.27344 -14.07813,-19.00781 -23.26172,-31.03125 -1.55078,-2.02344 -11.64453,-12.48437 -11.64453,-15.50781 0.0117,-5.78516 18.67187,-17.44922 24.04296,-18.60547"
     id="path57" />
  <path
     fill-rule="evenodd"
     fill="#60716E"
     fill-opacity="1"
     d="m 1432.735,263.06706 c 0.5313,4.08985 4.5782,5.67188 8.5235,5.42188 5.1015,-0.29688 12.8789,-8.92969 11.6406,-15.5 -0.832,-4.3711 -4.4297,-6.14453 -7.7695,-5.42969 -2.5977,0.55859 -12.9258,11.53125 -12.3946,15.50781 m 8.5235,-34.125 c 0.3398,-0.082 0.668,-1.00781 1.5586,-0.77734 7.3047,1.91015 26.4375,16.63281 24.8086,31.01953 -0.9805,8.72656 -8.9883,18.35937 -16.293,21.72656 -2.7422,1.25781 -7.1953,0.4961 -10.0742,2.32031 -3.8633,2.44922 -5.1641,9.78516 -7.7617,16.28907 -1.6368,4.13672 -5.3321,14.7539 -7.7461,15.50781 -3.9102,1.23437 -9.3477,-2.9375 -10.0821,-6.97656 -0.9726,-5.3125 2.8789,-9.35938 6.2032,-17.06641 1.7617,-4.08984 7.1093,-14.08594 3.0937,-16.28516 -3.8203,-2.08203 -11.0703,8.48829 -12.4062,10.08204 -4.2188,5.04687 -6.5352,10.48046 -10.8477,10.85546 -2.5312,0.21875 -8.918,-2.72265 -9.3281,-6.97265 -0.2969,-3.375 8.0898,-12.12891 10.8633,-15.51172 11.2734,-13.67578 25.75,-32.11719 35.6836,-43.43359 0.5664,-0.64063 1.3437,-0.52735 2.3281,-0.77735"
     id="path58" />
  <path
     fill-rule="evenodd"
     fill="#60716E"
     fill-opacity="1"
     d="m 341.48894,253.76237 c 4.61328,-0.6875 11.57031,8.88282 15.50781,13.17579 8.81641,9.61328 15.89844,17.97265 25.59766,28.69921 2.60547,2.89063 12.27734,11.1875 12.40234,14.73829 0.1836,4.53125 -4.49219,8.19921 -6.96484,8.53906 -6.07813,0.80859 -12.6211,-6.10156 -18.625,-9.3086 -4.44141,-2.38671 -10.89063,-5.94921 -17.06641,-7.75781 -6.19922,-1.82422 1.67969,6.13281 3.10938,7.75781 4.2539,4.8125 18.05078,16.42969 17.83984,21.71485 -0.10156,2.70703 -3.70703,7.0664 -7.75391,6.97265 -3.82812,-0.0898 -11.36718,-9.42187 -14.74218,-13.17578 -8.38672,-9.34765 -16.80078,-18.16797 -26.36328,-28.69922 -3.39063,-3.73437 -11.63672,-11.58984 -11.63672,-15.50781 0.0117,-5.9375 6.32422,-8.36719 7.7539,-8.53515 4.23047,-0.48438 11.29688,4.30468 17.84766,7.7539 2.10937,1.11328 22.80859,13.42578 15.5,3.10156 -1.73438,-2.46484 -6.84375,-7.41015 -8.52344,-9.30859 -3.3789,-3.80078 -10.84765,-8.43359 -10.875,-13.17969 0,-3.49609 3.13672,-6.42187 6.99219,-6.98047"
     id="path59" />
  <path
     fill-rule="evenodd"
     fill="#60716E"
     fill-opacity="1"
     d="m 1495.5475,275.47331 c 5.5391,-1.14062 8.2657,4.51172 14.7383,10.85938 4.8985,4.79297 11.4766,8.0039 11.625,12.41406 0.125,3.36328 -3.1679,7.48047 -6.2031,7.76172 -4.2109,0.36328 -9.8477,-6.72266 -13.1836,-9.32031 0.6406,0.49609 -1.4687,-3.05469 -3.875,-3.10157 -3.9336,-0.0742 -12.3398,9.625 -12.4101,11.62891 -0.2344,6.11719 9.6757,8.96094 9.3085,13.96875 -0.066,1.09375 -1.4882,5.60937 -6.2109,6.20312 -7.1836,0.91797 -6.2109,-7.46484 -13.1836,-7.7539 -3.1055,-0.12891 -14.7305,9.51562 -14.7305,13.95703 0,5.72656 13.8946,9.33203 13.9493,17.06641 0.055,4.30468 -3.9493,7.49609 -6.2032,7.76171 -5.4961,0.64454 -11.9531,-9.10156 -14.7265,-11.64062 -2.625,-2.41406 -12.2696,-9.21484 -12.4063,-13.95703 -0.1367,-4.61719 9.086,-11.41406 12.4063,-14.73438 12.4179,-12.41797 27.5195,-30.60156 39.5469,-40.32812 0.6054,-0.48438 0.5585,-0.57422 1.5585,-0.78516"
     id="path60" />
  <path
     fill-rule="evenodd"
     fill="#60716E"
     fill-opacity="1"
     d="m 288.75847,302.61784 c 3.21875,-0.92187 8.81641,0.59766 9.29688,5.4336 0.73828,7.29687 -11.20704,10.39843 -11.63672,16.29297 -0.30078,4.28906 8.38281,12.51171 12.40625,12.39843 3.11718,-0.082 7.07422,-8.4375 12.42187,-8.53125 3.23047,-0.0547 6.61328,2.22657 6.98047,6.21094 0.5,5.45703 -7.75391,6.65234 -7.75391,13.18359 0,3.50782 10.19532,13.91797 13.95704,13.96485 7.37109,0.0937 10.74609,-13.52344 17.05859,-13.96485 2,-0.13671 7.40234,2.21094 7.75,6.21094 0.47266,5.31641 -9.26563,12.26953 -11.63281,14.71875 -3.66797,3.84375 -8.19922,12.25 -13.17578,12.41406 -4.9336,0.16797 -11.89844,-9.04687 -15.51563,-12.41406 -10.16406,-9.43359 -18.71484,-17.16015 -28.69141,-27.14062 -2.85156,-2.85157 -12.99218,-8.61719 -13.1914,-13.95703 -0.13672,-3.71485 18.35547,-23.84375 21.72656,-24.82032"
     id="path61" />
  <path
     fill-rule="evenodd"
     fill="#60716E"
     fill-opacity="1"
     d="m 1551.3952,383.27409 c 0.1406,4.21875 6.4336,7.79688 10.0781,7.76172 5.5157,-0.0469 13.0625,-7.52344 13.1836,-12.40625 0.168,-6.85547 -4.0937,-9.64453 -9.3125,-8.53125 -2.5586,0.54688 -14.1015,9.28516 -13.9492,13.17578 m 14.7305,-32.5664 c 4.9804,-0.90625 9.2461,4.72656 13.9648,10.86328 5.0508,6.57031 10.6328,13.57812 8.5313,24.03125 -1.9375,9.64453 -20.4336,24.63672 -34.1328,18.61719 -6.3399,-2.78125 -9.2657,-11.97657 -14.7305,-12.40625 -4.2539,-0.33204 -8.1133,5.11328 -12.4102,8.53125 -2.9687,2.35937 -8.0898,7.99609 -12.4062,7.7539 -3.0274,-0.17187 -7.6133,-3.21094 -7.7539,-7.7539 -0.1524,-4.63282 7.414,-9.33204 13.1758,-13.96485 14.8125,-11.86328 29.9882,-24.71875 44.2109,-34.89844 0.5859,-0.42187 0.5469,-0.59765 1.5508,-0.77343"
     id="path62" />
  <path
     fill-rule="evenodd"
     fill="#60716E"
     fill-opacity="1"
     d="m 243.76238,353.03191 c 5.35547,-1.8125 13.83984,6.11718 18.61718,10.08203 10.00782,8.3125 18.28516,15.91015 30.25,25.59765 5.85547,4.73438 13.71485,9.91016 13.95704,13.1875 0.1914,2.44922 -4.44141,9.02735 -7.76172,9.30078 -5.30469,0.44922 -12.67969,-8.72265 -16.27735,-11.625 -7.97656,-6.46875 -21.05078,-17.38671 -30.24218,-24.82031 -3.92969,-3.18359 -13.52735,-9.39453 -13.97266,-13.18359 -0.41406,-3.59375 2.17187,-7.42969 5.42969,-8.53906"
     id="path63" />
  <path
     fill-rule="evenodd"
     fill="#60716E"
     fill-opacity="1"
     d="m 212.73894,414.29362 c 0.28516,4.10157 15.12891,13.10938 17.84766,12.42188 2.83203,-0.72266 4.99218,-4.85156 4.65234,-8.53906 -0.59766,-6.5625 -10.83594,-11.41016 -14.73438,-10.84766 -4.39453,0.625 -7.99609,3.48828 -7.76562,6.96484 m 3.89062,-20.92968 c 12.75782,-3.34766 25.8125,5.66015 30.24219,13.96484 1.21094,2.25 0.44141,6.6875 2.32422,9.30469 2.96094,4.08984 17.47656,6.98828 25.58984,10.08203 2.15625,0.81641 6.85938,0.84766 7.76563,3.875 1.46094,4.89453 -3.92188,9.45703 -6.98828,10.08984 -3.95313,0.79688 -30.28516,-12.72656 -33.34375,-6.98437 -3.10938,5.83594 22.51562,16.25 23.26172,21.71875 0.35547,2.59765 -2.02735,8.52344 -6.97657,9.30859 -5.66015,0.87891 -14.38281,-7.59765 -17.83593,-10.09375 -12.51172,-9.04687 -18.96485,-14.01172 -31.80078,-23.2539 -3.19532,-2.32032 -14.30079,-8.04297 -14.73438,-12.42188 -0.38672,-3.93359 12.59766,-20.25 15.51563,-22.48828 2.27734,-1.75391 6.22265,-2.90625 6.98046,-3.10156"
     id="path64" />
  <path
     fill-rule="evenodd"
     fill="#60716E"
     fill-opacity="1"
     d="m 1600.2546,432.13347 c -2.4922,1.80078 -7.0547,3.16406 -6.9844,6.99609 0.047,2.64453 3.5898,5.84766 4.6484,6.20313 13.5118,4.38672 24.7266,-19.52735 10.8711,-18.61719 -3.8242,0.25 -6.1562,3.71875 -8.5351,5.41797 m 9.3047,-24.03516 c 0.2851,-0.0508 0.7265,-0.80469 1.5547,-0.76953 5.496,0.19141 14.9062,15.05859 17.0546,20.9375 5.5157,15.04688 -7.8281,29.60156 -21.7187,31.80078 -3.2852,0.52344 -7.2774,-1.05859 -10.8477,0 -5.082,1.48047 -7.4218,7.91797 -11.6406,13.17969 -2.9648,3.70703 -9.3867,12.36719 -12.4062,12.41406 -3.6133,0.0469 -6.8907,-4.96875 -6.9805,-8.52734 -0.1758,-7.16406 11.0625,-14.91016 15.5195,-21.72266 1.5703,-2.41797 4.418,-4.92187 2.3242,-7.75781 -2.5195,-3.38281 -10.4375,2.29297 -13.9648,4.65234 -4.5313,3.02735 -9.293,8.69922 -13.1836,8.53516 -5.4727,-0.22266 -8.168,-5.42969 -7.7617,-9.30469 0.3125,-3.05469 8.414,-8.69922 13.9648,-12.40625 14.8008,-9.91015 31.9649,-22.32422 46.5352,-30.25781 0.5586,-0.29688 0.5703,-0.625 1.5508,-0.77344"
     id="path65" />
  <path
     fill-rule="evenodd"
     fill="#60716E"
     fill-opacity="1"
     d="m 178.62566,443.77409 c 2.58984,-0.66015 7.69922,-0.14843 8.52734,5.42188 0.6211,4.25 -3.57031,7.4414 -4.65625,9.32031 -1.53125,2.66016 -4.96875,6.39844 -4.65625,9.3125 0.36328,3.26172 10.83985,10.38672 13.96875,10.07031 7.13281,-0.70703 5.625,-11.70312 12.40625,-12.40625 4.76563,-0.5039 7.35938,3.35547 7.75391,5.4375 1.375,7.24219 -6.38281,6.9375 -5.4336,13.94922 0.57032,4.15625 7.83594,6.8086 13.1875,10.08203 4.90235,3.00391 12.38672,6.41407 13.19141,9.30469 1.08203,3.95313 -1.82422,9.90625 -5.42969,10.86328 -5.24609,1.38672 -14.03125,-6.57812 -18.61718,-9.29687 -12.78907,-7.61328 -20.77344,-12.23047 -34.12891,-20.17188 -4.48047,-2.67187 -14.96094,-7.80078 -15.51563,-11.6289 -0.48046,-3.48438 16.44922,-29.50391 19.40235,-30.25782"
     id="path66" />
  <path
     fill-rule="evenodd"
     fill="#60716E"
     fill-opacity="1"
     d="m 1632.0397,493.41862 c -4.332,2.42579 -8.7617,4.61719 -11.6172,6.20313 -4.8164,2.66406 -19.6367,9.87109 -19.3945,15.50781 0.4414,10.01172 12.8516,4.75391 18.6055,1.55078 5.0742,-2.80859 8.4531,-4.76953 12.4062,-6.98047 7.4805,-4.16015 22.5977,-10.04687 20.9493,-17.83984 -0.9102,-4.35547 -5.0469,-4.56641 -9.2969,-3.87109 -4.2656,0.67578 -7.8086,3.27734 -11.6524,5.42968 m 8.543,-20.17187 c 13.4063,-2.78906 28.4258,6.64844 26.3633,24.82422 -1.461,12.91797 -16.461,17.73047 -26.3633,23.26953 -9.3516,5.21484 -22.4805,16.20312 -34.9023,14.73437 -11.8282,-1.41015 -21.4063,-16.07421 -17.0586,-29.48046 3.0547,-9.46485 13.9726,-13.44141 23.2695,-18.60547 10.6602,-5.9336 18.793,-12.67188 28.6914,-14.74219"
     id="path67" />
  <path
     fill-rule="evenodd"
     fill="#60716E"
     fill-opacity="1"
     d="m 1663.8483,554.68425 c -3.7304,1.71484 -7.5937,3.63672 -11.6328,5.42969 -3.0078,1.33203 -20.707,7.45312 -20.9297,13.18359 -0.4297,10.35156 13.3125,5.73828 19.3789,3.10547 4.2774,-1.87109 8.3594,-4.39844 12.4141,-6.21094 9.0508,-4.05078 22.0391,-6.58594 20.9375,-15.50781 -0.6836,-5.50781 -3.1523,-5.10938 -7.7617,-4.65234 -3.7071,0.35937 -8.5977,2.91015 -12.4063,4.65234 m 17.8321,-23.26172 c 0.1796,-0.0156 0.8476,-0.78516 1.5546,-0.77734 5.9024,0.043 13.1524,17.66406 13.9571,23.26562 2.6914,18.67578 -11.0938,23.04297 -25.5821,29.48047 -8.0898,3.57813 -16.496,8.20703 -22.5039,10.07031 -16.3711,5.07032 -23.4804,-2.16015 -29.4765,-14.73047 -1.6563,-3.52343 -7.1172,-10.59765 -6.1992,-14.74218 1.1757,-5.21094 28.1523,-15.0586 32.5742,-17.0586 14.3242,-6.48437 23.3164,-11.03906 34.1328,-15.50781 0.3867,-0.16406 1.1172,0.0312 1.543,0"
     id="path68" />
  <path
     fill-rule="evenodd"
     fill="#60716E"
     fill-opacity="1"
     d="m 128.20769,536.84441 c 0.85547,-0.23438 0.22266,-0.33594 1.55859,0 15.58203,3.89453 35.07032,15.53515 52.73047,23.26953 7.57422,3.3125 15.28906,5.03125 16.28906,8.53515 1.28516,4.4961 -2.89453,10.29297 -4.65234,10.85157 -5.16016,1.63671 -11.29687,-3.53125 -15.50781,-5.41797 -3.98047,-1.79297 -10.14453,-6.40625 -14.74219,-5.4336 -3.50391,0.73438 -6.54297,4.33203 -5.42578,9.29688 1.61719,7.19922 26.55469,9.94531 28.69531,16.30078 1.54688,4.59766 -1.55078,10.69141 -5.42578,11.625 -4.03516,0.96484 -14.35937,-5.87109 -18.61719,-7.76172 -13.74218,-6.09375 -21.3164,-8.83594 -36.44531,-15.50391 -8.66797,-3.8164 -20.15625,-6.29687 -14.75,-16.28515 3.40234,-6.28906 9.90625,-2.7461 17.85156,0.76953 4.92188,2.19141 10.31641,6.0625 13.17969,5.42187 4.47656,-0.98046 6.01563,-6.25781 5.42969,-9.30078 -1.1836,-6.0664 -14.98047,-8.28125 -20.94531,-11.62109 -2.52344,-1.42188 -4.89063,-2.53125 -5.42188,-4.66016 -1.46875,-5.78125 4.26563,-9.5625 6.19922,-10.08593"
     id="path69" />
  <path
     fill-rule="evenodd"
     fill="#60716E"
     fill-opacity="1"
     d="m 1709.6061,597.3405 c 0.09,0 0.8907,-0.76172 1.5508,-0.77344 4.3711,-0.0781 8.2852,4.51563 6.9844,10.07813 -1.5039,6.41406 -24.2656,11.30468 -31.793,13.96484 -5.5351,1.9375 -11.4297,4.10938 -17.0586,6.19922 -6.5117,2.42578 -17.8984,6.16016 -10.8789,13.96484 3.7344,4.14844 10.8789,0.35938 16.293,-1.55078 9.3945,-3.3125 21.9844,-7.07422 32.582,-10.85937 6.6719,-2.37891 12.7891,-6.63282 17.0586,-4.65235 1.8086,0.83985 4.3086,8.38672 3.8711,10.08203 -0.914,3.58985 -10.957,6.4336 -14.7305,7.75391 -9.996,3.49609 -21.7343,7.64063 -33.3476,11.63281 -8.9844,3.09375 -18.6836,7.70703 -27.9219,1.5586 -7.3281,-4.8711 -12.4609,-19.4961 -7.7695,-29.48047 3.4687,-7.33594 18.7812,-12.48828 29.4883,-16.28516 13.1914,-4.67969 24.1601,-8.74219 34.1211,-11.63281 0.4414,-0.12891 1.0859,0.0273 1.5507,0"
     id="path70" />
  <path
     fill-rule="evenodd"
     fill="#60716E"
     fill-opacity="1"
     d="m 101.06706,598.11003 c 2.21094,-0.97266 7.46875,-0.75781 9.30469,2.33203 2.48438,4.1836 -2.85547,6.89844 -0.76953,11.64453 1.64063,3.74219 21.24219,8.98047 31.01172,12.40235 5.15625,1.80078 10.58984,3.42187 16.29297,5.42187 5.22265,1.84766 13.15625,4.53516 13.94922,6.99219 1.27343,3.78516 -2.77344,10.375 -3.8711,10.84766 -3.90234,1.69531 -11.28515,-1.78907 -17.05859,-3.875 -10.77344,-3.89844 -18.39844,-6.94141 -29.47266,-10.86329 -4.39453,-1.55078 -11.49609,-5.6875 -15.51172,-4.64843 -4.07031,1.05468 -4.07031,8.15625 -7.761713,9.30859 -3.6836,1.15625 -8.62891,-1.67578 -9.30469,-3.10156 -1.39844,-2.98828 2.86328,-13.70703 4.65234,-18.61719 2.6875,-7.39844 4.62891,-16.10937 8.539063,-17.84375"
     id="path71" />
  <path
     fill-rule="evenodd"
     fill="#60716E"
     fill-opacity="1"
     d="m 84.770187,685.75456 c 1.23828,3.6211 18.507813,8.38281 21.726563,6.21094 2.17578,-1.48828 2.48047,-6.08203 1.55469,-9.30469 -1.65234,-5.69531 -12.011723,-7.41406 -16.296883,-6.21094 -5.14453,1.44141 -8.41406,5.05469 -6.98437,9.30469 m 4.65625,-24.04687 c 11.082033,-2.02735 20.246093,1.60937 25.593753,6.20703 2.05078,1.7539 3.51562,7.11328 6.98828,8.53515 3.13281,1.28516 10.70313,0.35157 18.60547,0 4.66797,-0.20312 13.91016,-2.76953 16.29297,0.77344 1.875,2.82422 -1.07031,10.94141 -3.88672,12.41406 -5.9375,3.08204 -31.84766,-2.83593 -33.33594,3.8711 -1.60547,7.16406 27.30469,7.96094 29.46875,13.1914 1.64844,3.98438 -2.45703,11.05469 -3.88672,11.625 -3.74218,1.55079 -14.99218,-3.42187 -19.38672,-4.65234 -14.3164,-3.96875 -24.9375,-6.55078 -38.003903,-10.07422 -6.3125,-1.70312 -16.07813,-3.08984 -17.82813,-6.20312 -3.26953,-5.80469 6.40235,-29.82422 11.625,-33.35157 2.64063,-1.78125 6.61328,-2.11718 7.75391,-2.33593"
     id="path72" />
  <path
     fill-rule="evenodd"
     fill="#60716E"
     fill-opacity="1"
     d="m 1718.9108,668.69597 c 4.5977,-0.67969 9.4141,-1.59766 13.9649,0 7.6601,2.69922 16.664,18.60937 10.8633,30.24219 -2.5469,5.07421 -18.9805,17.28515 -23.2774,7.76171 -5.7344,-12.7539 12.543,-9.41015 10.8633,-19.39453 -1.6953,-10.11328 -24.4141,-0.35937 -28.6914,0.77735 -8.0391,2.14062 -27.0586,3.7539 -26.3789,12.40625 0.7187,9 11.1015,2.625 16.2851,4.66015 4.0821,1.59766 7.3321,5.98438 4.6524,11.625 -3.3555,7.07422 -23.9492,2.90625 -27.9024,-0.77734 -10.5976,-9.8125 -7.414,-28.0625 1.5352,-34.125 5.5781,-3.77734 15.5117,-4.69922 24.0391,-6.96484 8.8164,-2.34766 14.7968,-4.84375 24.0468,-6.21094"
     id="path73" />
  <path
     fill-rule="evenodd"
     fill="#60716E"
     fill-opacity="1"
     d="m 1745.6921,724.59441 c 8.6836,-1.98438 8.3242,8.96875 10.0937,18.61328 1.3516,7.51562 4.3672,16.39062 2.3203,19.39062 -0.9179,1.30078 -7.0976,4.23047 -10.8632,1.54688 -3.2657,-2.32032 -0.8711,-8.47657 -3.8789,-10.08203 -3.2266,-1.71485 -12.3243,1.47656 -17.0665,2.32031 -12.6875,2.28515 -19.1562,3.72656 -32.5664,6.21484 -5.6562,1.04688 -13.8632,2.61328 -16.2851,0.76953 -1.207,-0.91015 -3.2539,-9.02343 -1.5586,-11.63672 2.2969,-3.53125 27.0586,-5.96875 32.582,-6.97265 4.625,-0.85156 10.2656,-2.02735 16.2852,-3.10156 4.375,-0.78907 14.1211,-2.02735 15.4922,-3.88672 2.6015,-3.45313 -4.9961,-10.78516 5.4453,-13.17578"
     id="path74" />
  <path
     fill-rule="evenodd"
     fill="#60716E"
     fill-opacity="1"
     d="m 106.49675,757.11003 c 1.59766,-0.98437 2.34375,-4.95312 0.77344,-6.98047 -1.92969,-2.47265 -17.359383,-1.70703 -18.609383,-0.77344 -4.85156,3.55079 16.390633,8.64454 17.835943,7.75391 M 62.274097,736.94206 c 0.40625,-0.21094 -0.082,-0.71484 0.78125,-0.78125 18,-1.3125 38.546873,0 59.714843,0 10.375,0 19.34766,-2.49219 18.61719,6.99219 -0.0664,0.95703 -0.60157,4.50391 -1.54297,5.42187 -5.35938,5.3125 -15.25,-3.5 -18.61719,5.42579 -5.04687,13.40625 10.71484,9.60546 13.95703,16.29296 1.55469,3.1836 -0.82031,10.09375 -2.32422,10.85547 -4.0625,2.04688 -15.03906,-4.23828 -20.16797,-6.19922 -14.093753,-5.41796 -23.671873,-8.44531 -38.003903,-13.96875 -4.48828,-1.72656 -15.98047,-5.82421 -17.05469,-8.52343 -2.30469,-5.76172 2.57813,-14.41407 4.64063,-15.51563"
     id="path75" />
  <path
     fill-rule="evenodd"
     fill="#60716E"
     fill-opacity="1"
     d="m 52.981127,791.22331 c 1.6289,-0.91015 8.125,-1.70703 10.07422,2.33985 2.96093,6.10937 -4.51563,12.35156 -0.78125,18.60937 2.48828,4.16406 13.22265,4.91406 16.29687,3.10156 7.33984,-4.30468 -0.83594,-11.0664 5.42969,-15.51562 2.11328,-1.48828 7.84765,-1.50781 10.08203,1.55859 2.81641,3.8711 -1.85156,10.65235 0.77344,14.74219 1.61718,2.50781 15.132813,5.62891 19.386723,3.09375 4.1289,-2.46484 2.5039,-7 3.10156,-10.85547 0.3125,-1.93359 0.0859,-8.99219 2.33984,-10.86328 3.10938,-2.58984 9.52344,-0.82422 10.84375,0.78125 2.96485,3.55078 -0.17187,13.16406 -0.76172,18.60547 -0.68359,6.22265 -0.55859,15.88672 -3.10156,17.83984 -4.87109,3.73438 -33.085943,-2.38672 -39.554693,-3.10156 -5.27343,-0.57813 -12.09765,-0.63281 -20.16797,-1.54297 -6.62109,-0.76172 -17.1289,-1.375 -18.62109,-3.10937 -2.71094,-3.12891 0.70313,-30.60938 2.32813,-34.1211 0.25,-0.53515 1.76953,-1.23047 2.33203,-1.5625"
     id="path76" />
  <path
     fill-rule="evenodd"
     fill="#60716E"
     fill-opacity="1"
     d="m 1766.9421,800.23112 v 10.85547 c 0.4336,7.01172 -20.625,21.33594 -20.1758,5.42578 0.1602,-5.78125 7.418,-7.6914 6.9805,-12.40625 -0.6211,-6.51562 -5.7618,-5.77343 -10.0782,-4.65234 -9.7382,2.53906 -16.1992,20.43359 -22.5078,25.58984 -3.7695,3.10157 -9.289,4.83594 -14.7187,6.21094 h -3.8906 c -11.5625,-3.58594 -14.0391,-4.75 -17.0469,-12.41406 -1.293,-3.26563 -2.3789,-9.9375 -1.5625,-14.73438 1.4804,-8.59765 15.0586,-20.34375 20.9492,-13.1914 4.5859,5.57812 -0.1367,9.85937 -2.3398,12.42187 -2.5313,2.94922 -9.2305,6.21875 -3.8711,11.625 9.5781,9.6875 21.2656,-12.80078 23.2734,-15.50781 12.0234,-16.26953 37.4922,-24.25 44.9883,0.77734"
     id="path77" />
  <path
     fill="none"
     stroke-width="13.931"
     stroke-linecap="butt"
     stroke-linejoin="miter"
     stroke="#60716E"
     stroke-opacity="1"
     stroke-miterlimit="10"
     d="m 1806.9499,906.97722 c 0,497.02738 -402.9375,899.98828 -899.99612,899.98828 -497.04689,0 -899.9882931,-402.9609 -899.9882931,-899.98828 0,-497.07031 402.9414031,-900.0117201 899.9882931,-900.0117201 497.05862,0 899.99612,402.9414101 899.99612,900.0117201 z m 0,0"
     id="path91" />
</svg>
